<?xml version="1.0" standalone="no"?>
<!DOCTYPE svg PUBLIC "-//W3C//DTD SVG 20010904//EN"
 "http://www.w3.org/TR/2001/REC-SVG-20010904/DTD/svg10.dtd">
<svg version="1.0" xmlns="http://www.w3.org/2000/svg"
 width="720.000000pt" height="1347.000000pt" viewBox="0 0 720.000000 1347.000000"
 preserveAspectRatio="xMidYMid meet">

<g transform="translate(0.000000,1347.000000) scale(0.100000,-0.100000)"
fill="#000000" stroke="none">
<path d="M3070 13463 c8 -3 17 -9 20 -13 9 -14 114 -90 125 -90 5 0 28 -14 49
-30 22 -17 46 -30 53 -30 19 0 117 -42 121 -52 2 -4 10 -8 18 -8 8 0 22 -4 32
-10 23 -13 199 -76 237 -85 16 -3 33 -11 36 -16 9 -15 115 -24 123 -11 4 7 23
9 51 5 46 -6 105 11 105 29 0 10 -38 43 -71 63 -145 86 -178 101 -409 179
-220 75 -225 76 -371 75 -74 0 -127 -3 -119 -6z"/>
<path d="M4678 13345 c-2 -2 -15 -6 -28 -8 -16 -3 -32 -21 -56 -67 -19 -34
-34 -70 -34 -78 0 -20 -49 -72 -67 -72 -8 0 -11 -4 -8 -10 3 -5 -10 -16 -29
-24 -22 -9 -36 -22 -38 -38 -5 -30 28 -93 58 -109 13 -7 24 -17 24 -23 0 -6 9
-17 19 -23 11 -7 21 -25 23 -40 2 -21 10 -29 36 -37 19 -5 48 -24 66 -41 30
-29 37 -31 87 -27 30 2 61 7 69 12 8 4 34 11 58 15 23 4 43 10 43 13 1 4 3 16
4 27 1 12 7 30 13 41 15 28 10 51 -19 82 -47 51 -79 164 -79 279 0 55 -11 75
-62 106 -26 16 -73 29 -80 22z"/>
<path d="M0 11606 l0 -1545 30 11 c17 5 35 18 40 28 6 12 10 557 10 1513 l0
1494 -23 21 c-13 12 -31 22 -40 22 -16 0 -17 -103 -17 -1544z"/>
<path d="M7113 12560 c-13 -5 -23 -14 -23 -20 0 -5 -7 -10 -15 -10 -8 0 -17
-11 -21 -24 -3 -14 -19 -31 -39 -40 -32 -15 -62 -43 -54 -50 10 -10 46 -8 72
2 16 7 35 12 43 12 8 0 34 9 59 21 24 11 49 18 55 14 6 -4 10 13 10 49 l0 56
-32 -1 c-18 0 -43 -4 -55 -9z"/>
<path d="M5626 12145 c7 -16 44 -41 57 -37 4 1 7 -2 7 -8 0 -8 52 -41 65 -40
43 2 66 -2 77 -14 12 -11 17 -11 32 0 18 13 14 34 -6 34 -6 0 -32 10 -57 21
-58 28 -77 34 -127 48 -53 14 -55 14 -48 -4z"/>
<path d="M5886 12028 c3 -5 10 -6 15 -3 13 9 11 12 -6 12 -8 0 -12 -4 -9 -9z"/>
<path d="M5700 12002 c0 -5 -13 -24 -30 -42 -16 -18 -30 -41 -30 -49 1 -11 8
-8 25 12 13 15 33 27 43 27 23 0 35 33 19 49 -13 13 -27 14 -27 3z"/>
<path d="M5755 12000 c-4 -6 5 -10 19 -10 14 0 26 5 26 10 0 6 -9 10 -19 10
-11 0 -23 -4 -26 -10z"/>
<path d="M7076 10422 c-9 -29 3 -51 16 -28 5 10 5 23 0 33 -9 14 -10 14 -16
-5z"/>
<path d="M7188 10280 c-3 -8 -9 -27 -12 -41 -5 -21 -13 -28 -43 -34 -82 -15
-105 -56 -56 -101 32 -30 99 -52 114 -37 6 6 9 55 7 119 -2 60 -6 102 -10 94z"/>
<path d="M2519 9951 c-25 -4 -58 -14 -73 -24 -33 -22 -26 -38 40 -93 26 -22
67 -57 90 -79 42 -39 43 -41 26 -60 -17 -20 -128 -75 -151 -75 -7 0 -33 -8
-59 -19 -26 -10 -101 -40 -167 -67 -114 -46 -143 -63 -370 -219 -161 -110
-380 -302 -431 -378 -16 -23 -34 -46 -40 -52 -47 -41 -132 -202 -166 -315 -21
-70 -47 -190 -41 -190 2 0 -3 -10 -11 -22 -8 -13 -18 -41 -22 -63 -3 -22 -10
-47 -14 -55 -20 -39 -51 -281 -43 -338 13 -97 -63 -169 -232 -216 -33 -10 -79
-23 -102 -30 -22 -7 -76 -14 -117 -15 -95 -3 -132 -19 -221 -96 -144 -126
-198 -199 -243 -335 -18 -52 -27 -445 -13 -520 5 -25 11 -84 15 -131 11 -161
47 -277 93 -298 13 -6 23 -14 23 -19 0 -5 19 -17 43 -27 23 -9 50 -21 59 -26
34 -18 38 -10 38 76 l0 85 835 0 836 0 -32 31 c-18 17 -46 37 -64 45 -51 21
-85 74 -85 133 0 93 40 145 159 203 70 34 81 37 151 34 52 -2 92 2 130 14 112
37 127 39 166 25 32 -11 34 -14 19 -22 -20 -12 -11 -37 11 -29 19 7 18 -7 -4
-46 -11 -18 -24 -49 -31 -69 -6 -20 -26 -58 -43 -84 -23 -34 -28 -49 -19 -58
6 -6 11 -20 11 -31 0 -10 3 -16 7 -13 3 4 14 -7 24 -23 11 -17 27 -30 39 -30
11 0 30 -11 42 -25 29 -34 68 -34 68 -1 0 14 5 28 10 31 6 3 10 14 10 24 0 35
63 77 128 85 23 3 46 7 50 10 5 3 25 1 45 -4 21 -4 39 -4 42 1 7 11 -37 92
-49 90 -4 -1 -14 6 -21 15 -11 15 -16 16 -28 6 -9 -8 -18 -9 -21 -4 -3 5 -28
8 -56 7 -27 -1 -48 1 -45 5 2 4 -8 13 -23 20 -27 14 -27 14 -4 18 17 3 21 8
17 23 -5 14 0 21 21 29 50 19 142 12 129 -11 -3 -5 1 -6 9 -3 11 4 16 0 16
-10 0 -17 39 -22 55 -7 20 18 111 41 161 41 42 0 55 4 64 19 5 11 10 22 10 25
0 7 -91 21 -120 18 -51 -5 -70 36 -70 151 0 18 -6 30 -17 33 -10 3 -28 10 -40
16 -26 13 -93 2 -93 -15 0 -7 -13 -21 -29 -30 -17 -10 -48 -36 -71 -59 -36
-37 -43 -41 -60 -30 -16 10 -20 10 -20 -2 0 -20 -24 -27 -110 -31 -59 -3 -70
-2 -53 7 18 8 21 16 16 40 -7 35 -7 144 1 256 4 65 3 82 -8 82 -9 0 -13 10
-12 25 0 14 6 25 13 25 6 0 10 8 8 18 -4 26 4 33 26 21 12 -6 18 -17 15 -25
-4 -12 -1 -14 14 -9 11 4 20 3 20 -2 0 -11 76 -34 93 -27 7 2 35 -2 60 -11 60
-20 169 -33 195 -24 11 4 37 6 57 3 29 -3 36 -1 32 10 -5 14 19 26 53 26 13 0
13 -1 0 -10 -8 -5 -10 -10 -5 -10 17 0 34 21 28 36 -3 8 0 14 6 14 6 0 11 11
11 24 0 13 5 26 11 28 6 2 14 24 17 48 9 67 3 222 -10 237 -11 14 -76 17 -96
5 -6 -5 -32 -36 -56 -70 -24 -34 -61 -76 -82 -93 -34 -27 -45 -30 -83 -26 -24
3 -55 14 -70 26 -14 12 -39 28 -56 35 -99 46 -123 180 -42 238 58 42 93 56
153 63 75 9 92 19 110 60 19 46 18 81 -5 152 -12 36 -19 87 -18 129 0 38 -3
79 -7 92 -5 15 -3 22 6 22 7 1 22 15 33 33 11 17 40 42 63 55 38 21 60 25 188
30 151 5 345 -10 443 -34 122 -31 196 -89 269 -211 39 -67 82 -178 82 -215 0
-30 28 -89 41 -86 8 2 21 -29 35 -84 28 -106 70 -207 133 -318 104 -183 122
-220 155 -321 19 -57 51 -143 71 -192 25 -61 39 -113 45 -171 9 -85 30 -145
53 -147 47 -5 113 30 168 88 46 47 119 146 119 160 0 5 12 31 25 58 14 28 25
56 25 63 0 6 5 12 10 12 6 0 10 4 10 10 0 5 12 35 26 67 14 32 29 67 34 78 20
45 90 268 90 285 0 11 9 52 20 92 45 167 66 445 41 536 -7 25 -29 62 -52 87
-21 23 -39 46 -39 52 0 9 -99 61 -155 81 -16 6 -50 14 -75 16 -121 14 -352 46
-359 50 -5 3 -30 8 -57 11 -27 3 -107 16 -179 29 -71 14 -177 32 -235 41 -172
28 -302 80 -432 174 -39 28 -46 37 -41 60 3 14 5 31 4 36 -3 33 -10 55 -28 95
-12 25 -27 66 -34 93 -7 26 -18 47 -24 47 -5 0 -21 21 -35 48 -13 26 -41 70
-61 97 -33 44 -39 66 -30 105 1 3 8 -4 16 -14 13 -17 15 -18 15 -3 0 10 8 17
20 17 11 0 20 5 20 11 0 5 5 7 12 3 7 -5 9 -2 5 9 -3 9 1 21 11 29 8 7 13 8 9
2 -4 -7 8 -11 36 -10 57 0 131 -10 153 -22 11 -6 35 -18 54 -27 19 -9 54 -26
77 -39 37 -21 72 -34 112 -42 8 -1 17 -6 20 -11 3 -4 13 -9 21 -11 8 -2 52
-21 97 -43 44 -21 85 -39 91 -39 5 0 31 -10 58 -21 37 -17 52 -19 66 -10 10 6
25 11 33 11 20 0 58 21 69 39 7 11 10 11 17 0 7 -11 9 -11 9 2 0 9 11 24 24
34 14 10 27 34 31 52 3 18 10 33 14 33 12 0 14 147 1 155 -6 3 -8 11 -5 16 4
5 2 9 -3 9 -5 0 -14 11 -20 25 -6 14 -16 25 -22 25 -6 0 -37 17 -68 39 -31 21
-88 47 -127 58 -273 79 -376 106 -460 122 -23 4 -47 11 -54 16 -8 4 -21 9 -30
10 -9 1 -29 7 -46 14 -16 7 -34 14 -40 15 -46 12 -73 21 -90 32 -11 6 -56 22
-100 34 -44 12 -87 27 -95 34 -8 8 -32 17 -54 20 -21 4 -55 16 -75 27 -20 10
-40 19 -46 19 -12 0 -118 39 -245 90 -52 21 -107 41 -122 44 -14 3 -32 8 -40
10 -7 2 -34 0 -59 -3z"/>
<path d="M7038 9613 c-9 -10 -19 -28 -23 -41 -7 -25 11 -82 27 -82 5 0 6 -5 2
-11 -3 -6 -9 -7 -13 -3 -12 17 -26 17 -196 8 -71 -3 -145 -6 -162 -6 -18 0
-33 -3 -33 -8 0 -5 -20 -12 -45 -16 -25 -3 -48 -10 -51 -15 -3 -5 -14 -9 -25
-9 -11 0 -30 -6 -42 -14 -12 -8 -38 -17 -57 -19 -69 -11 -260 -83 -260 -99 0
-4 -6 -8 -14 -8 -20 0 -132 -105 -149 -138 -11 -24 -11 -30 3 -45 9 -9 27 -17
39 -17 29 0 102 -34 123 -57 21 -23 54 -100 78 -178 10 -33 28 -87 40 -120 11
-33 27 -98 34 -145 14 -92 26 -124 52 -134 21 -8 72 23 80 49 11 32 38 64 55
65 29 0 68 -25 74 -48 5 -22 10 -23 58 -20 29 2 60 8 69 12 12 5 27 -3 54 -28
21 -20 42 -36 47 -36 19 0 -3 -74 -29 -101 -26 -27 -27 -31 -13 -56 7 -16 29
-44 49 -64 63 -64 72 -79 59 -95 -8 -10 -8 -14 -1 -14 12 0 8 -18 -10 -56 -13
-28 -7 -59 12 -59 12 0 15 15 16 71 1 38 9 98 18 133 9 34 16 75 16 90 0 20 7
31 25 39 14 6 25 8 25 3 0 -4 -9 -12 -20 -17 -33 -15 -7 -40 46 -43 12 -1 22
-25 43 -96 14 -47 9 -475 -8 -670 -6 -66 -8 -152 -4 -192 4 -53 1 -89 -12
-136 -19 -73 -18 -198 3 -219 10 -10 17 -10 33 0 16 11 24 11 36 1 17 -15 33
2 33 38 0 24 19 41 29 26 3 -6 16 -15 29 -22 l22 -12 0 246 c0 228 -1 245 -18
245 -27 0 -72 59 -72 95 0 9 20 37 44 63 l44 47 2 728 c0 503 -2 727 -10 727
-15 0 -51 -61 -49 -85 3 -47 -1 -56 -23 -53 -36 5 -61 63 -61 141 1 64 4 73
47 138 25 38 46 75 46 83 0 19 -28 83 -39 90 -5 4 4 19 20 35 35 35 38 77 9
109 -26 27 -80 29 -102 5z m-451 -802 c3 -11 11 -22 19 -25 19 -7 18 -26 -1
-26 -8 0 -15 -7 -15 -15 0 -18 -16 -20 -23 -2 -3 7 -6 5 -6 -5 -1 -10 -8 -18
-16 -18 -30 0 -48 73 -23 98 19 19 59 15 65 -7z"/>
<path d="M5690 8070 c0 -6 17 -43 39 -83 21 -40 42 -91 45 -114 10 -58 34 -61
83 -11 21 22 55 48 76 59 36 19 43 33 39 82 -2 15 4 16 41 11 23 -3 48 -7 55
-10 6 -2 12 1 12 6 0 6 -4 10 -10 10 -5 0 -7 6 -4 14 3 8 -4 16 -18 21 -13 4
-27 9 -33 11 -37 13 -72 7 -77 -14 -3 -10 -11 -19 -19 -20 -8 0 -39 -4 -70 -8
-38 -4 -59 -3 -63 5 -4 6 -16 11 -27 11 -10 0 -27 9 -36 20 -19 22 -33 26 -33
10z"/>
<path d="M5380 7960 c-8 -5 -29 -10 -46 -10 -31 0 -32 -2 -39 -55 -6 -50 -4
-57 17 -74 20 -17 26 -18 50 -5 15 8 45 14 67 14 40 0 40 0 47 45 3 25 10 48
15 51 5 3 9 13 9 23 0 15 -9 19 -52 19 -29 1 -60 -3 -68 -8z"/>
<path d="M5310 7339 c-39 -16 -60 -40 -60 -71 0 -26 3 -28 39 -28 56 0 161 47
161 72 0 33 -83 49 -140 27z"/>
<path d="M5867 6943 c-4 -3 -7 -19 -7 -33 0 -15 -6 -32 -13 -38 -15 -13 -79
-30 -157 -42 -30 -5 -75 -16 -99 -25 -24 -8 -54 -15 -67 -15 -26 0 -94 -55
-94 -75 0 -19 30 -26 102 -24 35 1 92 -3 128 -10 87 -17 136 -16 190 4 86 31
110 74 90 169 -14 70 -50 113 -73 89z"/>
<path d="M7150 6939 c0 -5 5 -7 10 -4 6 3 10 8 10 11 0 2 -4 4 -10 4 -5 0 -10
-5 -10 -11z"/>
<path d="M7170 6885 c-14 -17 -56 -20 -66 -4 -4 8 -9 8 -17 0 -6 -6 -19 -11
-29 -11 -13 0 -18 -8 -18 -31 0 -41 -21 -33 -33 12 -5 19 -10 35 -12 37 -2 2
-21 -2 -44 -8 -55 -15 -54 -39 4 -97 50 -49 64 -88 20 -56 -13 10 -27 26 -31
36 -9 26 -48 18 -52 -11 -2 -13 2 -30 9 -38 19 -23 2 -29 -22 -8 -21 19 -21
19 -53 -17 -17 -19 -43 -43 -58 -52 -16 -10 -28 -23 -28 -30 0 -6 -6 -23 -13
-37 -21 -40 -41 -110 -34 -116 4 -4 17 -8 29 -9 38 -4 39 -5 33 -15 -4 -6 -11
-8 -16 -5 -19 12 -8 -44 11 -58 20 -14 21 -21 20 -1101 0 -727 3 -1086 10
-1086 5 0 10 -7 10 -15 0 -8 -4 -15 -10 -15 -6 0 -10 -71 -10 -192 0 -149 3
-189 12 -180 18 18 36 15 63 -12 23 -23 24 -23 41 -5 21 24 82 26 91 3 9 -24
-21 -46 -66 -48 -30 -2 -47 -10 -66 -30 -20 -21 -32 -26 -50 -22 l-25 6 0
-190 c0 -165 2 -190 15 -190 20 0 85 -62 85 -81 -1 -11 -3 -11 -13 1 -7 8 -29
23 -49 32 l-38 18 0 -285 0 -284 35 20 c44 26 65 55 65 91 0 31 15 44 48 39
29 -3 52 15 52 44 0 13 15 33 38 52 20 17 43 47 51 69 18 50 83 136 116 154
l25 13 0 1864 c0 1062 -4 1863 -9 1863 -5 0 -14 -7 -21 -15z m-365 -380 c0
-28 -29 -25 -33 3 -3 19 0 23 15 20 10 -2 18 -12 18 -23z m215 -315 c0 -5 -7
-10 -16 -10 -8 0 -12 5 -9 10 3 6 10 10 16 10 5 0 9 -4 9 -10z m90 -59 c0 -6
-4 -13 -10 -16 -5 -3 -10 1 -10 9 0 9 5 16 10 16 6 0 10 -4 10 -9z m-213 -357
c8 -22 -18 -37 -36 -20 -7 8 -10 19 -7 25 10 16 36 13 43 -5z m293 -158 c0 -3
-4 -8 -10 -11 -5 -3 -10 -1 -10 4 0 6 5 11 10 11 6 0 10 -2 10 -4z m0 -480 c0
-8 -4 -18 -10 -21 -5 -3 -10 3 -10 14 0 12 5 21 10 21 6 0 10 -6 10 -14z
m-194 -123 c-5 -11 -10 -13 -17 -6 -7 7 -7 17 3 32 10 18 14 19 16 6 2 -9 1
-23 -2 -32z m139 -293 c-3 -5 -11 -10 -16 -10 -6 0 -7 5 -4 10 3 6 11 10 16
10 6 0 7 -4 4 -10z m-188 -36 c3 -8 -2 -23 -11 -32 -15 -15 -16 -15 -16 1 0
10 -7 20 -15 23 -24 10 -17 24 10 24 14 0 28 -7 32 -16z m203 -249 c0 -8 -7
-15 -15 -15 -16 0 -20 12 -8 23 11 12 23 8 23 -8z m-262 -128 c2 -12 -3 -17
-17 -17 -15 0 -21 6 -21 21 0 25 33 22 38 -4z m-88 -383 c0 -8 -5 -12 -10 -9
-6 4 -8 11 -5 16 9 14 15 11 15 -7z m270 -33 c0 -5 -7 -11 -15 -15 -9 -3 -15
0 -15 9 0 8 7 15 15 15 8 0 15 -4 15 -9z m-169 -466 c-1 -15 -24 -12 -29 3 -3
9 2 13 12 10 10 -1 17 -7 17 -13z m23 -231 c29 -11 17 -24 -21 -24 -36 1 -37
2 -19 15 23 17 20 17 40 9z m99 -16 c36 -17 36 -40 0 -32 -48 10 -53 13 -53
29 0 18 17 19 53 3z m-143 -88 c0 -5 -9 -10 -20 -10 -11 0 -20 5 -20 10 0 6 9
10 20 10 11 0 20 -4 20 -10z"/>
<path d="M6620 6365 c-11 -13 -5 -15 41 -14 54 1 54 1 24 14 -39 18 -50 18
-65 0z"/>
<path d="M834 6082 c-10 -22 -11 -132 -2 -132 4 0 9 -215 11 -477 l3 -478 0
532 c1 293 -3 530 -8 527 -4 -3 -8 0 -8 5 0 11 13 15 38 12 18 -3 15 7 -7 18
-15 8 -21 7 -27 -7z"/>
<path d="M6240 6085 c0 -9 5 -15 11 -13 6 2 11 8 11 13 0 5 -5 11 -11 13 -6 2
-11 -4 -11 -13z"/>
<path d="M6327 6087 c-3 -7 3 -13 13 -13 10 0 16 6 13 13 -3 7 -9 13 -13 13
-4 0 -10 -6 -13 -13z"/>
<path d="M6373 6085 c4 -5 0 -20 -10 -34 -16 -25 -16 -25 2 -11 16 14 17 13
12 -5 -3 -11 -2 -36 3 -55 7 -29 8 -24 7 33 -1 38 -6 71 -12 74 -5 4 -7 2 -2
-2z"/>
<path d="M395 5220 c-3 -5 -15 -10 -26 -10 -11 0 -53 -11 -92 -24 -40 -13 -86
-26 -103 -29 -18 -3 -48 -11 -67 -18 -28 -10 -42 -10 -62 -1 -14 7 -30 12 -35
12 -6 0 -10 -247 -10 -655 0 -648 0 -655 20 -655 15 0 20 -7 20 -25 0 -14 3
-25 8 -25 42 -1 148 -23 153 -32 5 -7 16 -2 34 16 24 24 27 55 3 40 -6 -4 -8
1 -3 15 3 11 2 21 -3 21 -11 0 -20 30 -15 48 3 6 13 12 24 12 10 0 19 5 19 10
0 6 8 10 18 10 10 0 21 3 25 6 11 11 -5 34 -24 34 -10 0 -19 5 -19 10 0 6 9
10 19 10 24 0 38 29 43 90 1 14 7 28 13 32 6 5 6 8 -2 8 -7 0 -13 8 -13 18 0
14 -8 18 -37 19 -21 1 -39 6 -41 12 -2 5 -10 7 -17 5 -17 -7 -64 26 -65 44 0
7 -4 11 -9 7 -10 -6 -36 33 -28 42 3 2 21 1 41 -2 26 -5 36 -12 36 -26 0 -22
20 -25 39 -6 10 10 11 9 6 -5 -5 -13 -2 -18 9 -18 9 0 21 11 26 25 9 23 15 25
71 25 l61 0 -7 -32 -6 -33 15 29 c23 41 24 1006 2 1006 -8 0 -18 -4 -21 -10z"/>
<path d="M6366 4973 c10 -7 14 -16 11 -20 -4 -3 -7 -3 -7 2 0 4 -9 0 -21 -11
-11 -10 -41 -21 -67 -25 l-47 -7 50 1 c42 1 61 5 94 24 2 1 5 13 6 26 2 17 -2
23 -17 23 -18 0 -18 -1 -2 -13z"/>
<path d="M823 4958 c2 -23 23 -38 62 -45 16 -2 17 -1 5 7 -12 7 -8 10 15 10
23 0 27 -3 15 -10 -11 -7 -4 -9 25 -9 27 1 33 3 20 8 -11 3 1188 8 2665 11
l2685 5 -2734 2 c-2760 3 -2788 3 -2738 35 8 5 6 8 -5 8 -12 0 -17 -7 -15 -22z"/>
<path d="M1050 4215 c0 -70 4 -115 10 -115 6 0 10 28 10 64 0 72 14 92 55 82
24 -6 25 -10 25 -76 0 -40 4 -70 10 -70 14 0 13 133 -2 148 -15 15 -61 15 -76
0 -9 -9 -12 -2 -12 35 0 26 -4 47 -10 47 -6 0 -10 -45 -10 -115z"/>
<path d="M3130 4215 c0 -70 4 -115 10 -115 6 0 10 45 10 115 0 70 -4 115 -10
115 -6 0 -10 -45 -10 -115z"/>
<path d="M865 4295 c-14 -13 -25 -30 -26 -37 0 -7 -2 -24 -5 -37 -6 -34 14
-88 39 -106 33 -23 74 -19 104 11 14 14 22 28 18 32 -4 4 -16 -5 -27 -21 -22
-30 -67 -37 -88 -12 -20 25 -30 87 -19 127 16 62 73 78 107 31 11 -16 23 -25
27 -21 4 4 -4 18 -18 32 -34 34 -80 34 -112 1z"/>
<path d="M2000 4312 c0 -4 16 -37 35 -72 21 -41 35 -79 35 -102 0 -21 5 -38
10 -38 6 0 10 21 10 46 0 34 9 62 36 110 20 35 31 64 25 64 -6 0 -22 -22 -36
-49 -13 -27 -29 -52 -35 -56 -5 -3 -22 19 -37 49 -24 50 -43 71 -43 48z"/>
<path d="M2765 4296 c-65 -66 -27 -196 58 -196 28 0 85 45 73 57 -3 3 -17 -6
-30 -20 -62 -67 -134 10 -106 113 17 64 73 81 108 33 11 -16 23 -25 27 -21 4
4 -4 18 -18 32 -34 34 -80 34 -112 2z"/>
<path d="M1241 4234 c-28 -36 -27 -79 4 -109 49 -50 115 -19 115 55 0 75 -76
109 -119 54z m89 -3 c26 -50 3 -121 -40 -121 -43 0 -68 91 -34 124 21 22 61
20 74 -3z"/>
<path d="M1422 4237 c-30 -32 -29 -81 3 -112 49 -50 115 -19 115 55 0 73 -71
107 -118 57z m88 -6 c14 -27 12 -82 -4 -103 -18 -25 -52 -22 -70 4 -20 29 -20
82 0 102 21 22 61 20 74 -3z"/>
<path d="M1600 4245 c-21 -25 -7 -49 38 -65 37 -13 42 -18 40 -40 -4 -30 -47
-40 -68 -16 -7 9 -18 16 -24 16 -19 -1 35 -40 56 -40 33 0 58 19 58 45 0 19
-8 26 -42 38 -35 11 -43 18 -43 38 0 31 42 40 62 13 7 -10 16 -14 20 -10 12
12 -27 36 -58 36 -14 0 -32 -7 -39 -15z"/>
<path d="M1771 4234 c-12 -15 -21 -40 -21 -56 0 -35 40 -78 73 -78 23 0 73 29
50 30 -6 0 -15 -4 -18 -10 -11 -18 -53 -11 -69 12 -28 39 -21 48 39 48 51 0
55 2 55 23 0 56 -73 76 -109 31z m77 4 c7 -7 12 -20 12 -30 0 -15 -8 -18 -45
-18 -49 0 -59 15 -29 44 18 19 45 21 62 4z"/>
<path d="M2205 4235 c-16 -15 -25 -36 -25 -55 0 -38 39 -80 75 -80 37 0 65 33
65 78 0 78 -63 109 -115 57z m85 -4 c15 -29 12 -87 -6 -105 -35 -36 -84 -2
-84 58 0 56 66 91 90 47z"/>
<path d="M2370 4192 c0 -74 10 -92 50 -91 l25 1 -27 10 c-27 9 -28 12 -28 79
0 39 -4 69 -10 69 -6 0 -10 -29 -10 -68z"/>
<path d="M2470 4197 c0 -37 -5 -69 -12 -76 -10 -11 -10 -13 0 -7 6 4 12 2 12
-3 0 -6 5 -11 10 -11 6 0 10 33 10 80 0 47 -4 80 -10 80 -6 0 -10 -28 -10 -63z"/>
<path d="M2550 4180 c0 -97 18 -107 22 -13 3 61 6 69 28 80 15 8 19 13 10 13
-9 0 -21 -5 -28 -12 -9 -9 -12 -9 -12 0 0 7 -4 12 -10 12 -6 0 -10 -33 -10
-80z"/>
<path d="M2962 4237 c-30 -32 -29 -81 3 -112 49 -50 115 -17 115 57 0 71 -72
104 -118 55z m88 -6 c26 -50 3 -121 -40 -121 -43 0 -68 91 -34 124 21 22 61
20 74 -3z"/>
<path d="M3221 4234 c-28 -36 -27 -79 4 -109 49 -50 115 -19 115 55 0 75 -76
109 -119 54z m87 4 c15 -15 16 -82 2 -109 -25 -46 -90 -7 -90 55 0 52 56 86
88 54z"/>
<path d="M3390 4180 c0 -97 18 -107 22 -13 3 61 6 69 28 80 15 8 19 13 10 13
-9 0 -21 -5 -28 -12 -9 -9 -12 -9 -12 0 0 7 -4 12 -10 12 -6 0 -10 -33 -10
-80z"/>
<path d="M3500 4250 c0 -5 5 -10 10 -10 6 0 10 5 10 10 0 6 -4 10 -10 10 -5 0
-10 -4 -10 -10z"/>
<path d="M311 4214 c0 -11 3 -14 6 -6 3 7 2 16 -1 19 -3 4 -6 -2 -5 -13z"/>
<path d="M208 4193 c7 -3 16 -2 19 1 4 3 -2 6 -13 5 -11 0 -14 -3 -6 -6z"/>
<path d="M3500 4110 c0 -5 5 -10 10 -10 6 0 10 5 10 10 0 6 -4 10 -10 10 -5 0
-10 -4 -10 -10z"/>
<path d="M6805 3740 c3 -5 12 -7 20 -3 21 7 19 13 -6 13 -11 0 -18 -4 -14 -10z"/>
<path d="M220 3710 c0 -5 5 -10 10 -10 6 0 10 5 10 10 0 6 -4 10 -10 10 -5 0
-10 -4 -10 -10z"/>
<path d="M1203 3515 c-144 -31 -276 -136 -339 -270 -93 -195 -60 -407 86 -559
273 -284 746 -160 844 220 70 271 -106 551 -383 610 -80 17 -127 17 -208 -1z"/>
<path d="M2385 3523 c-322 -46 -518 -359 -414 -660 79 -232 329 -372 571 -322
79 17 170 63 232 119 323 296 140 826 -299 863 -33 2 -73 3 -90 0z"/>
<path d="M7186 1978 c-3 -46 -7 -98 -9 -117 -1 -20 3 -36 11 -38 9 -4 12 24
12 116 0 67 -2 121 -4 121 -2 0 -6 -37 -10 -82z"/>
<path d="M810 1355 l0 -695 2790 0 2790 0 0 695 0 695 -2790 0 -2790 0 0 -695z
m2830 75 c0 -38 1 -39 24 -30 34 12 66 1 77 -27 5 -13 9 -53 9 -89 0 -57 -2
-64 -20 -64 -18 0 -20 7 -20 70 l0 70 -29 0 c-35 0 -41 -13 -41 -87 0 -46 -3
-54 -17 -51 -16 3 -18 17 -19 118 -1 124 0 130 22 130 10 0 14 -12 14 -40z
m-860 10 c26 -26 26 -60 1 -60 -10 0 -21 9 -24 21 -4 16 -12 20 -39 17 -49 -5
-45 -37 6 -55 55 -18 76 -40 76 -78 0 -50 -35 -72 -107 -67 -27 2 -63 39 -63
64 0 25 36 23 43 -3 5 -17 12 -20 44 -17 30 2 38 7 38 23 0 14 -11 24 -40 33
-22 7 -47 20 -57 29 -23 20 -23 71 -1 95 23 26 96 25 123 -2z m760 10 c19 -10
43 -64 33 -74 -13 -13 -30 -5 -41 19 -13 29 -61 35 -82 10 -21 -25 -24 -92 -6
-120 23 -35 72 -35 88 0 14 32 38 32 38 1 0 -68 -99 -98 -146 -43 -42 49 -44
139 -3 191 16 20 29 26 60 26 22 0 49 -4 59 -10z m660 -9 c0 -19 -23 -35 -34
-24 -14 15 -5 43 14 43 13 0 20 -7 20 -19z m-1320 -21 c0 -11 7 -20 15 -20 8
0 15 -7 15 -15 0 -9 -7 -18 -15 -21 -11 -4 -15 -21 -15 -55 0 -37 4 -49 15
-49 18 0 20 -39 3 -41 -48 -5 -58 9 -58 84 0 44 -3 57 -15 57 -8 0 -15 9 -15
20 0 11 7 20 15 20 8 0 15 9 15 20 0 13 7 20 20 20 13 0 20 -7 20 -20z m380 0
c0 -13 7 -20 20 -20 22 0 23 -1 14 -24 -3 -9 -12 -16 -20 -16 -10 0 -14 -13
-14 -45 0 -34 5 -47 20 -55 11 -6 20 -17 20 -24 0 -19 -28 -28 -51 -16 -16 9
-19 22 -19 74 0 69 -9 79 -60 66 -23 -5 -25 -11 -28 -73 -3 -59 -5 -67 -22
-67 -18 0 -20 7 -20 90 l0 90 33 1 c17 1 47 1 65 0 26 -2 32 1 32 18 0 12 6
21 15 21 8 0 15 -9 15 -20z m740 0 c0 -16 7 -20 35 -20 28 0 35 4 35 20 0 11
7 20 15 20 8 0 15 -8 15 -19 0 -10 9 -21 20 -24 23 -6 17 -37 -6 -37 -10 0
-14 -13 -14 -45 0 -34 5 -47 20 -55 22 -12 24 -18 11 -39 -8 -12 -14 -13 -35
-3 -24 11 -26 16 -26 76 0 53 -3 65 -17 68 -41 9 -53 -2 -53 -52 0 -39 4 -49
20 -53 23 -6 27 -35 6 -43 -8 -3 -24 -1 -35 6 -18 9 -21 20 -21 74 0 55 -3 64
-20 69 -11 3 -20 12 -20 21 0 9 8 16 20 16 13 0 20 7 20 20 0 11 7 20 15 20 8
0 15 -9 15 -20z m-950 -36 c9 -9 16 -40 18 -89 l4 -74 -34 1 c-19 1 -40 -2
-47 -6 -6 -4 -23 -1 -36 8 -56 37 -35 101 37 112 37 6 39 8 23 20 -16 12 -22
12 -41 -1 -31 -20 -44 -19 -44 4 0 46 80 63 120 25z m856 3 c7 -7 14 -47 16
-89 l5 -77 -36 -1 c-20 0 -47 -1 -60 -1 -45 -1 -68 62 -36 95 9 8 31 18 50 22
38 7 45 18 19 28 -10 4 -25 -1 -35 -10 -26 -23 -54 -11 -39 16 21 39 87 48
116 17z m459 1 c5 -5 12 -45 14 -88 3 -76 2 -80 -18 -80 -19 0 -21 5 -21 70
l0 70 -29 0 c-35 0 -41 -13 -41 -87 0 -46 -3 -54 -17 -51 -16 3 -18 15 -18 88
l0 85 33 2 c19 1 36 4 40 7 7 7 43 -3 57 -16z m166 12 l29 0 0 -100 c0 -94 -2
-103 -25 -125 -24 -25 -43 -29 -82 -19 -25 7 -38 33 -23 48 7 7 14 6 22 -2 17
-17 43 -15 59 4 11 13 9 15 -12 13 -46 -4 -59 1 -74 31 -17 34 -20 93 -4 121
12 23 47 40 67 33 8 -2 27 -4 43 -4z m-331 -90 c0 -83 -1 -90 -20 -90 -19 0
-20 7 -20 90 0 83 1 90 20 90 19 0 20 -7 20 -90z"/>
<path d="M2971 1286 c-9 -10 -9 -16 -1 -21 17 -11 60 4 60 20 0 19 -44 20 -59
1z"/>
<path d="M3830 1290 c-11 -7 -12 -12 -3 -21 15 -15 47 -7 51 14 4 19 -23 23
-48 7z"/>
<path d="M4467 1359 c-11 -6 -17 -22 -17 -42 0 -43 12 -59 41 -55 20 2 24 9
27 45 3 47 -19 70 -51 52z"/>
<path d="M7186 1665 c-4 -14 -2 -33 3 -43 8 -13 10 -8 11 26 0 48 -5 54 -14
17z"/>
<path d="M6770 957 l0 -547 -611 0 c-459 0 -608 -3 -603 -12 5 -8 0 -9 -17 -3
-42 13 -246 18 -253 6 -4 -6 -19 -11 -34 -11 -21 0 -24 2 -12 10 11 7 0 10
-37 10 -44 0 -53 -3 -53 -18 0 -22 -37 -55 -45 -41 -4 5 -15 7 -25 4 -23 -7
-37 13 -16 21 9 4 23 1 31 -6 9 -7 19 -10 22 -6 4 4 1 11 -7 16 -8 6 -10 10
-5 11 6 0 1 4 -10 9 -11 5 -141 9 -289 9 l-270 1 32 -31 c17 -17 34 -39 37
-50 4 -10 13 -19 20 -19 8 0 29 -8 48 -19 51 -28 128 -36 166 -16 17 9 35 14
40 11 6 -4 69 -10 153 -16 20 -1 68 -55 68 -75 0 -13 8 -28 17 -33 17 -10 42
7 101 70 41 45 53 37 46 -29 l-7 -58 29 36 c16 20 34 44 39 54 9 14 18 15 75
7 36 -6 101 -19 145 -30 44 -11 112 -26 150 -32 39 -7 90 -21 114 -31 24 -11
54 -19 67 -19 36 0 45 -47 13 -71 -13 -10 -34 -19 -46 -19 -13 0 -23 -4 -23
-10 0 -12 67 -13 74 -1 3 5 25 14 50 20 24 6 51 13 60 17 14 5 15 3 6 -20
l-10 -26 601 0 c569 0 601 1 594 18 -5 9 -15 38 -25 63 -9 26 -23 57 -32 70
-17 27 -24 59 -37 169 -10 85 -24 123 -58 161 -15 16 -27 47 -33 82 -5 32 -11
61 -14 66 -3 5 -12 37 -20 72 -24 106 -43 171 -66 229 -12 30 -26 90 -31 132
-8 78 -33 142 -64 168 -13 11 -15 23 -10 58 4 30 2 50 -8 65 -8 12 -15 44 -15
71 -1 27 -4 51 -7 54 -3 3 -5 -241 -5 -541z m-1320 -602 c0 -25 -23 -35 -35
-15 -10 16 2 40 20 40 9 0 15 -9 15 -25z m110 -35 c0 -11 -7 -20 -15 -20 -17
0 -18 2 -9 24 9 23 24 20 24 -4z"/>
<path d="M7191 1434 c0 -11 3 -14 6 -6 3 7 2 16 -1 19 -3 4 -6 -2 -5 -13z"/>
<path d="M3420 395 c-25 -14 -25 -14 -2 -15 12 0 22 -4 22 -10 0 -5 -11 -10
-25 -10 -14 0 -25 -4 -25 -8 0 -17 -41 -51 -55 -46 -17 7 -19 -6 -9 -56 5 -24
11 -31 25 -27 11 3 19 1 19 -5 0 -6 7 -8 15 -5 8 4 17 2 21 -4 3 -6 12 -8 20
-5 8 3 14 1 14 -4 0 -6 -7 -10 -15 -10 -8 0 -15 -7 -15 -15 0 -8 5 -14 11 -12
6 1 14 -4 16 -10 3 -8 -4 -13 -16 -13 -12 0 -21 -4 -21 -10 0 -5 -9 -10 -20
-10 -15 0 -20 -7 -20 -24 0 -14 -11 -33 -25 -44 -13 -11 -21 -22 -18 -26 3 -3
261 -6 572 -6 631 1 597 -4 456 67 -100 51 -238 149 -259 184 -19 32 -23 80
-11 117 l7 22 -318 0 c-258 -1 -324 -3 -344 -15z m-15 -305 c3 -6 -1 -7 -9 -4
-18 7 -21 14 -7 14 6 0 13 -4 16 -10z"/>
</g>
</svg>
