<?xml version="1.0" standalone="no"?>
<!DOCTYPE svg PUBLIC "-//W3C//DTD SVG 20010904//EN"
 "http://www.w3.org/TR/2001/REC-SVG-20010904/DTD/svg10.dtd">
<svg version="1.0" xmlns="http://www.w3.org/2000/svg"
 width="1832.000000pt" height="876.000000pt" viewBox="0 0 1832.000000 876.000000"
 preserveAspectRatio="xMidYMid meet">

<g transform="translate(0.000000,876.000000) scale(0.100000,-0.100000)"
fill="#000000" stroke="none">
<path d="M8320 8155 l0 -145 25 0 25 0 1 113 0 112 41 -112 c35 -100 43 -113
63 -113 21 0 28 13 63 118 l40 117 1 -117 1 -118 30 0 30 0 0 146 0 145 -47
-3 -46 -3 -35 -104 -34 -103 -35 106 -34 106 -45 0 -44 0 0 -145z"/>
<path d="M9463 8268 c-6 -18 -29 -84 -51 -145 l-40 -113 34 0 c30 0 35 4 41
30 5 29 7 30 60 30 51 0 55 -2 64 -30 9 -24 17 -30 40 -30 16 0 29 3 29 8 0 4
-21 69 -47 145 l-47 137 -36 0 c-32 0 -38 -4 -47 -32z m65 -88 l21 -60 -41 0
c-34 0 -39 3 -33 18 3 9 11 36 18 60 6 23 12 42 13 42 1 0 11 -27 22 -60z"/>
<path d="M9170 8260 c-16 -4 -26 -14 -28 -28 -2 -12 -10 -22 -18 -22 -8 0 -14
-9 -14 -20 0 -11 7 -20 15 -20 12 0 15 -13 15 -60 0 -47 4 -64 21 -81 28 -28
83 -23 87 8 2 16 -3 22 -20 25 -21 3 -23 8 -23 53 0 44 3 50 23 53 32 5 30 42
-2 42 -20 0 -25 6 -28 28 -3 24 -6 27 -28 22z"/>
<path d="M8722 8185 c-28 -23 -32 -33 -32 -76 0 -55 20 -84 66 -95 39 -10 98
7 102 30 3 16 -1 17 -35 11 -31 -5 -44 -2 -64 14 l-24 20 68 1 67 0 0 34 c0
47 -27 76 -76 83 -33 4 -45 1 -72 -22z m88 -30 c18 -21 9 -27 -36 -23 -36 3
-37 4 -20 21 21 21 40 22 56 2z"/>
<path d="M8949 8195 c-51 -27 -63 -120 -21 -158 40 -36 142 -34 142 4 0 17 -5
18 -38 13 -30 -5 -43 -2 -57 12 -18 19 -17 19 48 22 63 3 67 4 67 27 0 76 -72
117 -141 80z m81 -45 c10 -18 8 -20 -30 -20 -41 0 -49 7 -28 28 18 18 46 14
58 -8z"/>
<path d="M9680 8065 l0 -145 30 0 c30 0 30 1 30 55 0 52 1 55 19 45 33 -17 61
-11 92 19 77 77 -3 216 -89 155 -20 -14 -22 -14 -22 0 0 11 -10 16 -30 16
l-30 0 0 -145z m134 79 c18 -46 -1 -84 -41 -84 -31 0 -48 36 -34 73 8 21 17
27 40 27 17 0 31 -6 35 -16z"/>
<path d="M9930 8065 l0 -145 30 0 c30 0 30 1 30 55 0 52 1 55 19 45 33 -17 61
-11 92 19 77 77 -3 216 -89 155 -20 -14 -22 -14 -22 0 0 11 -10 16 -30 16
l-30 0 0 -145z m134 79 c18 -46 -1 -84 -41 -84 -31 0 -48 36 -34 73 8 21 17
27 40 27 17 0 31 -6 35 -16z"/>
<path d="M8200 7495 c0 -60 3 -75 15 -75 11 0 15 11 15 41 0 33 3 40 18 37 12
-2 18 -14 20 -41 5 -55 24 -45 20 11 -3 44 -5 47 -30 47 -24 -1 -28 3 -28 27
0 18 -5 28 -15 28 -12 0 -15 -15 -15 -75z"/>
<path d="M10147 7564 c-8 -8 1 -24 14 -24 5 0 9 7 9 15 0 15 -12 20 -23 9z"/>
<path d="M8096 7539 c-32 -25 -35 -70 -6 -99 21 -21 74 -27 85 -10 4 6 -6 10
-22 10 -36 0 -53 16 -53 50 0 34 17 50 53 50 16 0 26 4 22 10 -10 17 -51 11
-79 -11z"/>
<path d="M9920 7530 c-16 -14 -21 -23 -13 -28 6 -4 13 -23 15 -42 2 -27 8 -36
26 -38 12 -2 22 1 22 7 0 6 -4 11 -10 11 -15 0 -12 57 3 63 8 4 9 8 1 14 -6 4
-13 14 -15 21 -3 10 -11 8 -29 -8z"/>
<path d="M10206 7529 c-11 -13 -14 -24 -8 -28 6 -3 12 -22 14 -41 2 -27 8 -36
26 -38 25 -4 30 13 7 22 -22 8 -19 53 5 59 16 4 22 -4 36 -46 15 -46 15 -51 0
-62 -20 -15 -21 -25 -2 -25 20 0 34 20 61 89 18 46 20 61 10 61 -7 0 -19 -17
-26 -37 l-12 -38 -12 35 c-10 29 -17 36 -43 38 -17 2 -32 10 -34 18 -2 12 -7
10 -22 -7z"/>
<path d="M8324 7495 c-15 -23 -15 -27 0 -50 28 -42 96 -24 96 25 0 49 -68 67
-96 25z m61 -25 c0 -16 -6 -26 -18 -28 -19 -4 -32 20 -23 44 9 25 41 13 41
-16z"/>
<path d="M8458 7509 c-28 -16 -23 -67 7 -81 38 -17 75 3 75 41 0 43 -42 64
-82 40z m52 -39 c0 -23 -4 -30 -20 -30 -16 0 -20 7 -20 30 0 23 4 30 20 30 16
0 20 -7 20 -30z"/>
<path d="M8573 7513 c-20 -8 -15 -41 7 -48 11 -3 20 -11 20 -16 0 -5 -9 -9
-20 -9 -11 0 -20 -4 -20 -10 0 -11 30 -13 54 -4 23 9 20 45 -4 51 -26 7 -26
23 1 23 11 0 17 5 14 10 -6 10 -31 12 -52 3z"/>
<path d="M8668 7509 c-21 -12 -24 -59 -6 -77 15 -15 54 -16 63 -2 4 6 -5 10
-19 10 -14 0 -26 5 -26 10 0 6 14 10 30 10 22 0 30 5 30 18 0 37 -36 52 -72
31z m42 -19 c0 -5 -7 -10 -15 -10 -8 0 -15 5 -15 10 0 6 7 10 15 10 8 0 15 -4
15 -10z"/>
<path d="M8810 7511 c0 -5 7 -25 15 -44 8 -20 15 -46 15 -57 0 -11 -7 -20 -15
-20 -8 0 -15 -4 -15 -10 0 -12 20 -13 37 -2 10 6 63 124 63 139 0 2 -6 3 -14
3 -8 0 -17 -13 -21 -30 -9 -43 -22 -45 -29 -5 -4 21 -13 35 -21 35 -8 0 -15
-4 -15 -9z"/>
<path d="M8938 7509 c-28 -16 -23 -67 7 -81 38 -17 75 3 75 41 0 43 -42 64
-82 40z m52 -39 c0 -23 -4 -30 -20 -30 -16 0 -20 7 -20 30 0 23 4 30 20 30 16
0 20 -7 20 -30z"/>
<path d="M9040 7489 c0 -50 14 -66 60 -66 l40 0 0 48 c0 36 -4 49 -14 49 -10
0 -16 -13 -18 -37 -2 -26 -8 -38 -18 -38 -10 0 -16 12 -18 38 -4 47 -32 53
-32 6z"/>
<path d="M9170 7468 c0 -26 5 -48 10 -48 6 0 10 14 10 31 0 22 5 32 20 36 31
8 24 30 -10 30 -29 0 -30 -2 -30 -49z"/>
<path d="M9300 7469 c0 -37 4 -49 15 -49 11 0 15 11 15 41 0 33 3 40 18 37 12
-2 18 -14 20 -41 5 -55 24 -45 20 11 l-3 47 -42 2 -43 2 0 -50z"/>
<path d="M9438 7509 c-21 -12 -24 -59 -6 -77 15 -15 54 -16 63 -2 4 6 -5 10
-19 10 -14 0 -26 5 -26 10 0 6 14 10 30 10 22 0 30 5 30 18 0 37 -36 52 -72
31z m42 -19 c0 -5 -7 -10 -15 -10 -8 0 -15 5 -15 10 0 6 7 10 15 10 8 0 15 -4
15 -10z"/>
<path d="M9537 7513 c-14 -13 -6 -20 18 -15 15 2 25 0 25 -7 0 -6 -8 -11 -19
-11 -10 0 -24 -7 -31 -15 -18 -22 3 -43 45 -43 34 0 35 1 35 37 0 20 -5 42
-12 49 -13 13 -50 16 -61 5z m43 -63 c0 -5 -7 -10 -15 -10 -8 0 -15 5 -15 10
0 6 7 10 15 10 8 0 15 -4 15 -10z"/>
<path d="M9640 7469 c0 -37 4 -49 15 -49 10 0 15 11 15 35 0 24 5 35 15 35 30
0 15 27 -15 28 -29 1 -30 0 -30 -49z"/>
<path d="M9725 7500 c-36 -40 11 -97 62 -74 15 6 14 8 -7 12 -43 7 -47 22 -6
22 34 0 37 2 30 23 -13 41 -50 49 -79 17z m55 -10 c0 -5 -9 -10 -21 -10 -11 0
-17 5 -14 10 3 6 13 10 21 10 8 0 14 -4 14 -10z"/>
<path d="M9833 7513 c-20 -8 -15 -41 7 -48 11 -3 20 -11 20 -16 0 -5 -9 -9
-20 -9 -11 0 -20 -4 -20 -10 0 -11 30 -13 54 -4 23 9 20 45 -4 51 -26 7 -26
23 1 23 11 0 17 5 14 10 -6 10 -31 12 -52 3z"/>
<path d="M10056 7504 c-25 -24 -20 -63 8 -76 14 -6 33 -7 43 -3 16 7 15 9 -7
14 -34 9 -36 54 -2 59 12 2 22 8 22 13 0 15 -47 10 -64 -7z"/>
<path d="M10140 7470 c0 -38 4 -50 15 -50 11 0 15 12 15 50 0 38 -4 50 -15 50
-11 0 -15 -12 -15 -50z"/>
<path d="M9072 6208 c-20 -20 -13 -32 8 -13 17 15 23 16 33 6 9 -10 9 -15 -4
-24 -15 -10 -15 -12 5 -28 20 -17 20 -19 4 -35 -17 -17 -18 -17 -38 1 -11 10
-20 13 -20 8 0 -16 27 -35 46 -31 24 4 39 32 29 54 -4 11 -8 30 -9 44 -1 28
-33 39 -54 18z"/>
<path d="M9173 6213 c-7 -2 -13 -12 -13 -21 0 -13 2 -13 14 3 15 21 46 14 46
-10 0 -8 -12 -25 -26 -38 -14 -12 -30 -30 -35 -39 -9 -16 -5 -18 33 -17 30 2
35 3 16 6 -34 5 -35 13 -3 43 46 43 22 96 -32 73z"/>
<path d="M9037 5314 c-8 -8 1 -24 14 -24 5 0 9 7 9 15 0 15 -12 20 -23 9z"/>
<path d="M9580 5245 c0 -60 3 -75 15 -75 11 0 15 11 15 40 0 29 4 40 15 40 11
0 15 -11 15 -40 0 -30 4 -40 16 -40 12 0 14 10 12 48 -3 44 -5 47 -30 47 -24
-1 -28 3 -28 27 0 18 -5 28 -15 28 -12 0 -15 -15 -15 -75z"/>
<path d="M9850 5305 c0 -9 5 -15 11 -13 6 2 11 8 11 13 0 5 -5 11 -11 13 -6 2
-11 -4 -11 -13z"/>
<path d="M8370 5240 l0 -70 40 0 c22 0 40 5 40 10 0 6 -11 10 -25 10 -18 0
-25 5 -25 20 0 15 7 20 25 20 14 0 25 5 25 10 0 6 -11 10 -25 10 -18 0 -25 5
-25 20 0 15 7 20 25 20 14 0 25 5 25 10 0 6 -18 10 -40 10 l-40 0 0 -70z"/>
<path d="M8816 5279 c-11 -13 -14 -24 -8 -28 6 -3 12 -22 14 -41 2 -27 8 -36
26 -38 12 -2 22 1 22 7 0 6 -4 11 -10 11 -15 0 -12 57 3 64 10 5 10 7 0 12 -7
3 -13 12 -13 20 0 20 -13 17 -34 -7z"/>
<path d="M9918 5286 c-18 -17 -15 -79 5 -103 11 -15 37 -17 37 -3 0 6 -4 10
-10 10 -15 0 -12 57 3 63 8 4 9 8 1 14 -6 4 -13 14 -15 22 -4 11 -8 11 -21 -3z"/>
<path d="M8480 5223 c12 -31 24 -48 35 -48 11 0 23 17 35 48 17 43 17 48 2 45
-8 -2 -20 -19 -25 -38 l-10 -35 -12 35 c-6 19 -19 36 -28 38 -14 3 -13 -2 3
-45z"/>
<path d="M8598 5259 c-21 -12 -24 -59 -6 -77 15 -15 54 -16 63 -2 4 6 -5 10
-19 10 -14 0 -26 5 -26 10 0 6 14 10 30 10 22 0 30 5 30 18 0 37 -36 52 -72
31z m42 -19 c0 -5 -7 -10 -15 -10 -8 0 -15 5 -15 10 0 6 7 10 15 10 8 0 15 -4
15 -10z"/>
<path d="M8690 5219 c0 -37 4 -49 15 -49 11 0 15 11 15 41 0 33 3 40 18 37 12
-2 18 -14 20 -41 5 -55 24 -45 20 11 l-3 47 -42 2 -43 2 0 -50z"/>
<path d="M8890 5255 c-10 -12 -10 -18 0 -30 7 -8 19 -15 26 -15 8 0 14 -4 14
-10 0 -5 -12 -10 -26 -10 -14 0 -23 -4 -19 -10 9 -14 48 -13 63 2 19 19 14 34
-15 48 -27 13 -27 14 -5 18 12 2 22 8 22 13 0 15 -46 10 -60 -6z"/>
<path d="M9030 5220 c0 -38 4 -50 15 -50 11 0 15 12 15 50 0 38 -4 50 -15 50
-11 0 -15 -12 -15 -50z"/>
<path d="M9090 5219 c0 -37 4 -49 15 -49 11 0 15 11 15 41 0 33 3 40 18 37 12
-2 18 -14 20 -41 5 -55 24 -45 20 11 l-3 47 -42 2 -43 2 0 -50z"/>
<path d="M9276 5254 c-22 -21 -20 -61 3 -74 25 -13 61 -13 61 0 0 6 -11 10
-25 10 -14 0 -25 5 -25 10 0 6 14 10 30 10 22 0 30 5 30 18 0 39 -45 55 -74
26z m49 -14 c3 -5 -3 -10 -14 -10 -12 0 -21 5 -21 10 0 6 6 10 14 10 8 0 18
-4 21 -10z"/>
<path d="M9385 5260 c-3 -5 3 -10 14 -10 31 0 34 -18 4 -22 -22 -2 -28 -8 -28
-28 0 -22 4 -25 38 -26 l37 -1 0 42 c0 30 -5 45 -16 49 -23 9 -42 7 -49 -4z
m40 -60 c-3 -5 -13 -10 -21 -10 -8 0 -14 5 -14 10 0 6 9 10 21 10 11 0 17 -4
14 -10z"/>
<path d="M9490 5250 c-24 -24 -24 -29 -4 -58 15 -22 64 -31 64 -12 0 6 -9 10
-19 10 -21 0 -33 22 -25 45 4 8 15 15 25 15 10 0 19 5 19 10 0 17 -39 11 -60
-10z"/>
<path d="M9768 5259 c-28 -16 -23 -67 6 -81 14 -6 33 -7 43 -3 16 7 15 9 -7
14 -34 9 -36 54 -2 59 12 2 22 8 22 13 0 12 -40 11 -62 -2z"/>
<path d="M9850 5220 c0 -38 4 -50 15 -50 11 0 15 12 15 50 0 38 -4 50 -15 50
-11 0 -15 -12 -15 -50z"/>
<path d="M9992 5214 c21 -55 21 -57 3 -70 -21 -16 -14 -30 10 -20 15 5 49 73
61 123 10 39 -17 24 -32 -18 l-11 -34 -10 35 c-5 20 -17 36 -26 38 -15 3 -15
-3 5 -54z"/>
<path d="M10072 4659 c-8 -11 -9 -18 -3 -14 7 4 11 -5 11 -24 0 -27 -4 -31
-27 -31 -26 0 -26 0 -7 23 l19 22 -22 -19 c-31 -26 -29 -36 6 -36 23 0 31 -5
34 -22 l4 -23 2 23 c0 12 7 22 14 22 9 0 9 2 0 8 -6 4 -13 27 -15 50 -3 40 -4
41 -16 21z"/>
<path d="M10060 3641 c16 -4 25 -14 25 -26 0 -12 -9 -21 -25 -26 l-25 -6 25
-4 c20 -3 25 -10 25 -31 -1 -14 3 -24 7 -22 11 7 10 42 -2 49 -6 4 -5 13 2 25
15 23 -5 50 -36 49 -19 -1 -18 -2 4 -8z"/>
<path d="M10048 3513 c7 -3 16 -2 19 1 4 3 -2 6 -13 5 -11 0 -14 -3 -6 -6z"/>
<path d="M10040 2610 c-11 -7 -7 -9 15 -7 43 3 45 -30 5 -68 -43 -41 -39 -55
13 -53 l42 1 -37 4 c-21 2 -38 8 -38 12 0 4 14 20 30 36 32 31 38 53 18 73
-14 14 -28 15 -48 2z"/>
<path d="M10168 2543 c12 -2 30 -2 40 0 9 3 -1 5 -23 4 -22 0 -30 -2 -17 -4z"/>
<path d="M2973 1836 l-231 -401 76 -37 c101 -48 181 -72 187 -55 7 21 204 891
202 893 -1 1 -106 -179 -234 -400z"/>
<path d="M10050 1569 c-13 -9 -12 -10 2 -5 15 4 18 -4 21 -57 l3 -62 2 68 c2
68 -1 75 -28 56z"/>
<path d="M10168 1513 c12 -2 30 -2 40 0 9 3 -1 5 -23 4 -22 0 -30 -2 -17 -4z"/>
<path d="M2320 1250 c0 -27 -3 -30 -24 -24 -28 7 -56 -18 -56 -50 0 -31 20
-46 58 -43 l32 2 0 73 c0 39 -2 72 -5 72 -3 0 -5 -14 -5 -30z m-12 -42 c17
-17 15 -43 -4 -59 -31 -26 -70 25 -44 56 15 18 32 19 48 3z"/>
<path d="M1982 1198 c2 -70 2 -71 5 -15 2 31 7 57 11 57 4 0 23 -25 41 -55 18
-30 37 -55 42 -55 5 0 8 33 7 73 l-1 72 -6 -62 -6 -63 -39 60 c-21 33 -42 60
-47 60 -5 0 -8 -33 -7 -72z"/>
<path d="M2530 1240 c0 -23 5 -30 19 -30 48 0 47 -64 -1 -73 -23 -4 -23 -4 -1
-6 24 -1 53 23 53 44 0 18 -28 45 -46 45 -8 0 -14 9 -14 19 0 14 8 21 28 24
25 4 25 4 -5 6 -30 1 -33 -2 -33 -29z"/>
<path d="M2635 1260 c-4 -6 1 -7 11 -3 11 4 22 -1 30 -12 8 -10 14 -14 14 -9
0 26 -42 44 -55 24z"/>
<path d="M2711 1232 c-32 -49 -66 -108 -58 -101 12 9 88 131 85 134 -2 2 -14
-13 -27 -33z"/>
<path d="M2136 1214 c-21 -20 -20 -48 0 -69 23 -22 56 -15 73 17 14 24 14 28
-3 47 -23 25 -49 27 -70 5z m48 0 c35 -13 14 -74 -24 -74 -18 0 -31 39 -20 60
11 21 19 24 44 14z"/>
<path d="M2372 1218 c-7 -7 -12 -24 -12 -38 0 -31 17 -50 45 -50 18 0 18 1 -4
13 -39 20 -38 37 3 37 23 0 36 5 36 13 0 18 -21 37 -40 37 -9 0 -21 -5 -28
-12z m48 -13 c11 -13 8 -15 -20 -15 -28 0 -31 2 -20 15 7 8 16 15 20 15 4 0
13 -7 20 -15z"/>
<path d="M2637 1208 c2 -5 10 -8 18 -8 8 0 16 3 18 8 3 4 -5 7 -18 7 -13 0
-21 -3 -18 -7z"/>
<path d="M2717 1194 c-13 -13 -7 -55 9 -61 24 -9 51 23 38 45 -12 19 -36 27
-47 16z m38 -29 c0 -11 -8 -21 -17 -23 -14 -3 -18 3 -18 23 0 20 4 26 18 23 9
-2 17 -12 17 -23z"/>
<path d="M10078 534 c42 -29 21 -127 -24 -110 -12 5 -15 18 -12 61 1 30 -1 50
-5 46 -5 -5 -7 -30 -5 -56 4 -59 26 -79 57 -51 37 34 21 126 -22 126 -6 0 -1
-7 11 -16z"/>
<path d="M11032 483 l887 -3 4 -38 4 -37 1 38 2 37 479 0 480 0 4 -37 4 -38 1
38 2 37 969 0 970 0 4 -37 4 -38 1 38 2 37 724 0 725 0 4 -37 4 -38 1 38 2 37
479 0 480 0 4 -37 4 -38 1 37 2 37 123 4 c67 1 -1538 3 -3568 2 -2029 0 -3291
-1 -2803 -2z"/>
<path d="M11073 315 c0 -44 2 -61 4 -37 2 23 2 59 0 80 -2 20 -4 1 -4 -43z"/>
<path d="M14173 315 c0 -44 2 -61 4 -37 2 23 2 59 0 80 -2 20 -4 1 -4 -43z"/>
<path d="M16643 315 c0 -44 2 -61 4 -37 2 23 2 59 0 80 -2 20 -4 1 -4 -43z"/>
<path d="M17463 315 c0 -44 2 -61 4 -37 2 23 2 59 0 80 -2 20 -4 1 -4 -43z"/>
<path d="M10612 310 c2 -72 2 -73 5 -15 3 41 7 55 13 45 6 -8 10 -10 10 -4 0
5 -7 19 -15 30 -13 17 -14 12 -13 -56z"/>
<path d="M10710 339 c-12 -23 -19 -43 -17 -45 2 -3 11 10 18 28 l14 33 6 -60
6 -60 1 73 c1 39 0 72 -3 72 -2 0 -14 -18 -25 -41z"/>
<path d="M11582 308 l1 -73 6 60 6 60 14 -33 c7 -18 16 -31 18 -28 5 5 -35 86
-42 86 -3 0 -4 -33 -3 -72z"/>
<path d="M11690 359 c-7 -11 -9 -23 -6 -27 3 -3 7 1 8 9 1 8 4 -13 8 -46 l7
-60 1 73 c1 39 0 72 -3 72 -2 0 -9 -9 -15 -21z"/>
<path d="M12543 373 c-25 -10 -14 -52 18 -68 38 -20 36 -50 -3 -50 -15 1 -24
-3 -22 -7 8 -12 38 -10 52 4 20 20 13 43 -19 62 -37 22 -36 51 4 51 15 -1 27
3 27 7 0 9 -37 10 -57 1z"/>
<path d="M13510 310 c0 -64 2 -70 21 -70 50 0 80 47 43 68 -11 6 -13 11 -5 16
6 4 11 15 11 26 0 19 -19 30 -51 30 -17 0 -19 -8 -19 -70z m55 35 c0 -13 -8
-21 -22 -23 -19 -3 -23 1 -23 23 0 22 4 26 23 23 14 -2 22 -10 22 -23z m-1
-41 c35 -13 12 -54 -30 -54 -9 0 -14 11 -14 30 0 30 11 37 44 24z"/>
<path d="M14400 360 c-45 -45 -13 -122 50 -119 23 1 22 2 -6 8 -46 12 -54 19
-54 55 0 37 22 62 60 69 25 4 24 4 -2 6 -16 0 -37 -8 -48 -19z"/>
<path d="M14887 373 c20 -4 22 -12 26 -71 l3 -67 2 67 c2 60 4 67 25 71 12 2
0 4 -28 4 -27 0 -40 -2 -28 -4z"/>
<path d="M15912 308 l1 -73 6 65 6 65 39 -62 c21 -35 43 -63 47 -63 5 0 8 33
7 73 l-1 72 -6 -65 -6 -65 -40 63 c-22 34 -43 62 -47 62 -5 0 -7 -33 -6 -72z"/>
<path d="M16350 375 c0 -3 9 -23 20 -45 11 -22 21 -52 21 -67 1 -25 2 -25 8 7
4 19 15 49 24 67 9 18 17 36 17 40 -1 4 -10 -10 -22 -31 l-21 -40 -18 37 c-18
33 -29 46 -29 32z"/>
<path d="M16972 308 l1 -73 6 65 6 65 40 -63 c22 -34 43 -62 48 -62 4 0 6 33
5 73 l-1 72 -6 -65 -6 -65 -38 63 c-21 34 -43 62 -48 62 -5 0 -8 -33 -7 -72z"/>
<path d="M10782 304 c-2 -50 19 -75 48 -56 14 9 20 8 23 -1 3 -7 5 13 5 43 -1
39 -2 44 -5 18 -8 -73 -59 -78 -66 -6 l-4 43 -1 -41z"/>
<path d="M10903 290 c0 -30 2 -43 4 -27 2 15 2 39 0 55 -2 15 -4 2 -4 -28z"/>
<path d="M10943 329 c11 -7 18 -24 19 -52 l1 -42 4 38 c4 38 -9 67 -31 67 -6
0 -3 -5 7 -11z"/>
<path d="M11002 328 c9 -7 19 -31 21 -53 3 -32 4 -30 3 10 -1 42 -4 50 -21 53
-18 4 -19 3 -3 -10z"/>
<path d="M11096 332 c-3 -5 5 -8 17 -8 18 1 23 -5 25 -32 3 -26 -1 -34 -20
-41 -14 -6 -17 -10 -7 -10 22 -1 39 19 39 49 0 38 -38 67 -54 42z"/>
<path d="M11196 331 c-4 -5 2 -7 13 -4 23 6 39 -16 20 -28 -9 -6 -10 -9 -2 -9
6 0 14 -12 16 -27 3 -21 4 -17 6 13 1 40 -12 64 -35 64 -7 0 -15 -4 -18 -9z"/>
<path d="M11293 290 c0 -30 2 -43 4 -27 2 15 2 39 0 55 -2 15 -4 2 -4 -28z"/>
<path d="M11768 329 c-25 -14 -24 -65 1 -79 11 -5 24 -10 30 -10 16 0 41 30
41 50 0 21 -25 50 -43 50 -7 0 -20 -5 -29 -11z m50 -11 c28 -28 1 -75 -38 -63
-14 4 -20 15 -20 35 0 37 33 53 58 28z"/>
<path d="M11898 333 c7 -3 16 -2 19 1 4 3 -2 6 -13 5 -11 0 -14 -3 -6 -6z"/>
<path d="M11967 322 c-10 -10 -17 -26 -17 -35 0 -21 27 -47 48 -46 12 0 10 3
-6 9 -45 18 -40 68 9 81 21 6 22 7 3 8 -11 1 -28 -7 -37 -17z"/>
<path d="M12059 323 c-11 -15 -11 -16 1 -5 20 17 47 15 59 -5 6 -10 11 -13 11
-7 1 32 -50 45 -71 17z"/>
<path d="M12161 324 c0 -11 3 -14 6 -6 3 7 2 16 -1 19 -3 4 -6 -2 -5 -13z"/>
<path d="M12217 333 c-4 -3 -7 -11 -7 -17 0 -6 5 -5 12 2 6 6 9 14 7 17 -3 3
-9 2 -12 -2z"/>
<path d="M12273 325 c-3 -9 -3 -18 -1 -21 3 -3 8 4 11 16 6 23 -1 27 -10 5z"/>
<path d="M12646 331 c-4 -5 2 -7 13 -4 23 6 39 -16 20 -28 -9 -6 -10 -9 -2 -9
6 0 14 -12 16 -27 3 -21 4 -17 6 13 1 40 -12 64 -35 64 -7 0 -15 -4 -18 -9z"/>
<path d="M12743 290 c0 -30 2 -43 4 -27 2 15 2 39 0 55 -2 15 -4 2 -4 -28z"/>
<path d="M12790 320 c11 -11 21 -35 21 -52 2 -28 3 -29 6 -7 5 34 -13 79 -32
79 -12 0 -11 -4 5 -20z"/>
<path d="M12844 331 c3 -5 15 -7 26 -4 28 7 25 13 -6 13 -14 0 -23 -4 -20 -9z"/>
<path d="M12923 290 c0 -30 2 -43 4 -27 2 15 2 39 0 55 -2 15 -4 2 -4 -28z"/>
<path d="M12976 332 c-3 -6 2 -8 13 -5 23 6 39 -16 20 -28 -9 -6 -10 -9 -2 -9
6 0 14 -12 16 -27 3 -16 4 -5 3 22 -1 43 -4 50 -23 53 -11 2 -24 -1 -27 -6z"/>
<path d="M13075 324 c-8 -9 -15 -24 -15 -34 0 -21 25 -50 43 -50 6 0 1 7 -11
16 -25 18 -29 46 -7 64 32 26 69 -16 46 -52 -7 -12 -8 -17 -2 -13 15 9 14 -18
-1 -37 -7 -9 -22 -18 -33 -21 -18 -4 -18 -5 2 -6 32 -2 53 35 53 94 0 48 -1
50 -30 52 -16 1 -36 -5 -45 -13z"/>
<path d="M13196 324 c-30 -29 -9 -84 32 -84 12 0 9 4 -8 13 -45 23 -22 91 25
73 13 -5 16 -15 13 -40 -2 -19 0 -32 4 -30 12 8 9 59 -4 72 -17 17 -44 15 -62
-4z"/>
<path d="M13636 332 c-3 -5 4 -8 16 -8 26 1 35 -21 11 -27 -16 -4 -16 -5 -1
-6 10 -1 18 -12 21 -28 3 -21 4 -17 6 13 1 40 -12 64 -35 64 -7 0 -15 -4 -18
-8z"/>
<path d="M13773 328 c9 -7 18 -31 20 -53 l4 -40 1 46 c2 35 -2 48 -14 53 -25
10 -29 7 -11 -6z"/>
<path d="M13845 324 c-8 -9 -15 -24 -15 -34 0 -21 25 -50 43 -50 6 0 1 7 -11
16 -25 18 -29 46 -7 64 32 26 69 -16 46 -52 -7 -12 -8 -17 -2 -13 15 9 14 -18
-1 -37 -7 -9 -22 -18 -33 -21 -18 -4 -18 -5 2 -6 32 -2 53 35 53 94 0 48 -1
50 -30 52 -16 1 -36 -5 -45 -13z"/>
<path d="M13989 317 l-25 -23 28 -29 c15 -16 30 -27 33 -24 2 3 -6 16 -20 29
l-25 24 22 23 c27 29 21 29 -13 0z"/>
<path d="M14068 329 c-25 -14 -24 -65 1 -79 11 -5 24 -10 30 -10 16 0 41 30
41 50 0 21 -25 50 -43 50 -7 0 -20 -5 -29 -11z m50 -11 c28 -28 1 -75 -38 -63
-14 4 -20 15 -20 35 0 37 33 53 58 28z"/>
<path d="M14210 315 l-24 -26 29 -27 28 -27 -22 29 -21 29 22 24 c12 12 19 23
16 23 -2 0 -15 -11 -28 -25z"/>
<path d="M14516 331 c-4 -5 2 -7 13 -4 23 6 39 -16 20 -28 -9 -6 -10 -9 -2 -9
6 0 14 -12 16 -27 3 -21 4 -17 6 13 1 40 -12 64 -35 64 -7 0 -15 -4 -18 -9z"/>
<path d="M14613 265 c0 -44 2 -61 4 -37 2 23 2 59 0 80 -2 20 -4 1 -4 -43z"/>
<path d="M14636 332 c-3 -5 5 -8 17 -8 18 1 23 -5 25 -32 3 -26 -1 -34 -20
-41 -14 -6 -17 -10 -7 -10 22 -1 39 19 39 49 0 38 -38 67 -54 42z"/>
<path d="M14979 323 c-11 -15 -11 -16 1 -5 20 17 47 15 59 -5 6 -10 11 -13 11
-7 1 32 -50 45 -71 17z"/>
<path d="M15081 324 c0 -11 3 -14 6 -6 3 7 2 16 -1 19 -3 4 -6 -2 -5 -13z"/>
<path d="M15137 333 c-4 -3 -7 -11 -7 -17 0 -6 5 -5 12 2 6 6 9 14 7 17 -3 3
-9 2 -12 -2z"/>
<path d="M15193 325 c-3 -9 -3 -18 -1 -21 3 -3 8 4 11 16 6 23 -1 27 -10 5z"/>
<path d="M15232 290 c1 -38 3 -44 5 -20 3 19 10 41 16 49 9 11 9 13 0 8 -6 -4
-14 -1 -16 5 -3 7 -5 -12 -5 -42z"/>
<path d="M15283 329 c11 -7 18 -24 19 -52 l1 -42 4 38 c4 38 -9 67 -31 67 -6
0 -3 -5 7 -11z"/>
<path d="M16066 324 c-30 -29 -9 -84 32 -84 12 0 10 4 -7 13 -39 20 -38 37 3
37 37 0 47 15 24 38 -16 16 -33 15 -52 -4z m52 -11 c2 -9 -7 -13 -28 -13 -28
0 -31 2 -20 15 15 18 41 16 48 -2z"/>
<path d="M16151 330 c0 -8 4 -24 9 -35 5 -13 9 -14 9 -5 0 8 -4 24 -9 35 -5
13 -9 14 -9 5z"/>
<path d="M16206 324 c-3 -9 -4 -19 -1 -22 3 -3 5 1 6 9 0 8 4 6 9 -6 6 -13 9
-15 9 -5 0 8 -3 21 -8 28 -6 11 -10 10 -15 -4z"/>
<path d="M16468 329 c-28 -16 -23 -67 7 -81 46 -21 86 40 49 76 -18 18 -32 20
-56 5z m50 -11 c28 -28 1 -75 -38 -63 -14 4 -20 15 -20 35 0 37 33 53 58 28z"/>
<path d="M16573 290 c0 -30 2 -43 4 -27 2 15 2 39 0 55 -2 15 -4 2 -4 -28z"/>
<path d="M16676 314 c-18 -26 -18 -26 10 -53 l28 -26 -24 28 -23 27 23 25 c13
14 19 25 14 25 -5 0 -17 -12 -28 -26z"/>
<path d="M17150 333 c24 -10 31 -27 12 -35 -16 -6 -16 -7 1 -7 19 -1 22 -12 6
-28 -7 -7 -6 -12 5 -16 12 -5 16 1 16 24 0 40 -16 69 -38 68 -14 0 -14 -2 -2
-6z"/>
<path d="M17223 290 c0 -30 2 -43 4 -27 2 15 2 39 0 55 -2 15 -4 2 -4 -28z"/>
<path d="M17273 290 c0 -30 2 -43 4 -27 2 15 2 39 0 55 -2 15 -4 2 -4 -28z"/>
<path d="M17349 323 c-11 -15 -11 -16 1 -5 20 17 47 15 59 -5 6 -10 11 -13 11
-7 1 32 -50 45 -71 17z"/>
<path d="M17486 332 c-3 -5 5 -8 17 -8 18 1 23 -5 25 -32 3 -26 -1 -34 -20
-41 -14 -6 -17 -10 -7 -10 22 -1 39 19 39 49 0 38 -38 67 -54 42z"/>
<path d="M11871 319 c0 -9 10 -24 24 -33 29 -19 25 -35 -8 -37 -18 -1 -18 -2
-4 -6 18 -5 47 12 47 28 0 5 -11 14 -25 21 -13 6 -26 18 -28 27 -4 14 -5 14
-6 0z"/>
<path d="M13735 319 c-4 -6 -5 -12 -2 -15 2 -3 7 2 10 11 7 17 1 20 -8 4z"/>
<path d="M14727 323 c-11 -11 -8 -58 5 -71 7 -7 21 -12 33 -11 16 0 15 2 -7
11 -41 14 -36 38 7 38 19 0 35 4 35 8 0 4 -16 6 -37 4 -30 -4 -35 -2 -30 12 7
17 5 20 -6 9z"/>
<path d="M10640 318 c0 -4 8 -23 17 -43 12 -24 19 -31 25 -23 11 18 10 30 -2
23 -5 -3 -16 7 -24 22 -8 15 -15 25 -16 21z"/>
<path d="M16261 304 c0 -11 3 -14 6 -6 3 7 2 16 -1 19 -3 4 -6 -2 -5 -13z"/>
<path d="M12231 294 c0 -11 3 -14 6 -6 3 7 2 16 -1 19 -3 4 -6 -2 -5 -13z"/>
<path d="M15151 294 c0 -11 3 -14 6 -6 3 7 2 16 -1 19 -3 4 -6 -2 -5 -13z"/>
<path d="M11656 285 c-3 -9 -10 -13 -16 -10 -12 7 -13 -5 -2 -23 6 -9 12 -5
21 14 6 15 10 28 8 31 -3 2 -7 -3 -11 -12z"/>
<path d="M12175 275 c7 -33 12 -41 20 -33 3 3 -2 18 -11 34 l-16 29 7 -30z"/>
<path d="M15095 275 c7 -33 12 -41 20 -33 3 3 -2 18 -11 34 l-16 29 7 -30z"/>
<path d="M11182 268 c2 -14 11 -24 23 -25 17 -2 17 -1 2 3 -13 4 -17 12 -14
25 3 10 1 19 -5 19 -5 0 -8 -10 -6 -22z"/>
<path d="M12632 268 c2 -14 11 -24 23 -25 17 -2 17 -1 2 3 -13 4 -17 12 -14
25 3 10 1 19 -5 19 -5 0 -8 -10 -6 -22z"/>
<path d="M12964 275 c-8 -19 3 -35 24 -35 13 0 13 2 -4 15 -16 13 -17 16 -4
25 11 7 11 10 2 10 -7 0 -15 -7 -18 -15z"/>
<path d="M13620 270 c0 -24 26 -38 42 -22 8 8 4 9 -12 5 -20 -5 -22 -3 -18 15
4 12 2 22 -3 22 -5 0 -9 -9 -9 -20z"/>
<path d="M14502 268 c2 -14 11 -24 23 -25 17 -2 17 -1 2 3 -13 4 -17 12 -14
25 3 10 1 19 -5 19 -5 0 -8 -10 -6 -22z"/>
<path d="M17115 280 c-8 -12 12 -40 28 -40 6 0 2 7 -9 15 -16 13 -17 16 -4 25
9 6 10 10 3 10 -6 0 -15 -5 -18 -10z"/>
<path d="M12116 263 c-6 -14 -5 -15 5 -6 7 7 10 15 7 18 -3 3 -9 -2 -12 -12z"/>
<path d="M15036 263 c-6 -14 -5 -15 5 -6 7 7 10 15 7 18 -3 3 -9 -2 -12 -12z"/>
<path d="M16230 275 c0 -5 4 -16 9 -23 6 -11 10 -10 15 4 3 9 4 19 1 22 -3 3
-5 -1 -5 -9 0 -11 -2 -11 -10 1 -5 8 -10 11 -10 5z"/>
<path d="M17406 263 c-6 -14 -5 -15 5 -6 7 7 10 15 7 18 -3 3 -9 -2 -12 -12z"/>
<path d="M12062 254 c9 -9 21 -15 27 -13 6 2 -2 10 -17 17 -25 11 -25 11 -10
-4z"/>
<path d="M12240 261 c0 -5 5 -13 10 -16 6 -3 10 -2 10 4 0 5 -4 13 -10 16 -5
3 -10 2 -10 -4z"/>
<path d="M14982 254 c9 -9 21 -15 27 -13 6 2 -2 10 -17 17 -25 11 -25 11 -10
-4z"/>
<path d="M15160 261 c0 -5 5 -13 10 -16 6 -3 10 -2 10 4 0 5 -4 13 -10 16 -5
3 -10 2 -10 -4z"/>
<path d="M16170 261 c0 -5 5 -13 10 -16 6 -3 10 -2 10 4 0 5 -4 13 -10 16 -5
3 -10 2 -10 -4z"/>
<path d="M17352 254 c9 -9 21 -15 27 -13 6 2 -2 10 -17 17 -25 11 -25 11 -10
-4z"/>
<path d="M12867 249 c7 -7 15 -10 18 -7 3 3 -2 9 -12 12 -14 6 -15 5 -6 -5z"/>
</g>
</svg>
