<?xml version="1.0" standalone="no"?>
<!DOCTYPE svg PUBLIC "-//W3C//DTD SVG 20010904//EN"
 "http://www.w3.org/TR/2001/REC-SVG-20010904/DTD/svg10.dtd">
<svg version="1.0" xmlns="http://www.w3.org/2000/svg"
 width="1896.000000pt" height="610.000000pt" viewBox="0 0 1896.000000 610.000000"
 preserveAspectRatio="xMidYMid meet">

<g transform="translate(0.000000,610.000000) scale(0.100000,-0.100000)"
fill="#000000" stroke="none">
<path d="M0 4513 l0 -1588 3170 3 3170 2 0 -460 0 -460 -3172 -3 -3173 -2
3173 -3 3172 -2 0 -465 0 -465 -3172 -3 -3173 -2 3173 -3 3172 -2 0 -465 0
-465 -3172 -2 -3173 -3 3169 -2 c3154 -3 3170 -3 3188 -23 19 -20 32 -20 3113
-20 3083 0 3095 0 3112 20 17 20 30 20 3195 20 l3177 0 4 -62 c2 -35 4 1311 5
2990 l2 3052 -9480 0 -9480 0 0 -1587z m17287 1545 c34 -15 103 -67 103 -78 0
-10 -57 2 -87 18 -30 16 -98 15 -132 -2 -29 -15 -47 -16 -69 -2 -11 6 -11 11
0 24 40 48 124 66 185 40z m-247 -45 c30 -20 40 -33 40 -52 0 -9 -6 -11 -17
-6 -47 20 -146 -5 -160 -40 -7 -19 -23 -20 -23 -2 0 25 55 86 90 101 44 19 41
19 70 -1z m445 -73 c3 -6 -1 -7 -9 -4 -18 7 -21 14 -7 14 6 0 13 -4 16 -10z
m-638 -57 c-7 -12 -20 -85 -19 -110 0 -13 -5 -20 -10 -17 -17 11 9 134 27 134
4 0 4 -3 2 -7z m-95 -56 c34 -28 44 -100 15 -105 -15 -3 -22 8 -18 31 0 4 -3
7 -9 7 -5 0 -10 8 -10 18 0 10 -7 27 -15 38 -30 40 -6 47 37 11z m932 -84 c3
-21 6 -51 6 -67 0 -25 -3 -27 -22 -21 -13 4 -37 7 -54 7 -19 0 -31 4 -31 13 0
7 6 11 12 9 11 -5 14 5 16 58 0 21 6 28 27 31 15 2 30 5 33 6 4 0 9 -16 13
-36z m-5116 15 c17 -17 17 -5639 0 -5656 -17 -17 -6189 -17 -6206 0 -17 17
-17 5639 0 5656 17 17 6189 17 6206 0z m5147 -144 c163 -36 169 -59 17 -59
-90 -1 -122 -5 -197 -29 -50 -16 -104 -40 -122 -52 -17 -13 -36 -24 -42 -24
-24 0 -91 -72 -91 -98 0 -24 1 -24 18 -9 14 13 21 14 30 5 8 -8 10 -5 7 14 -4
21 2 29 44 51 29 16 64 27 88 27 40 0 83 -22 83 -43 0 -7 -4 -6 -10 3 -9 14
-14 7 -11 -13 1 -5 -3 -6 -9 -2 -5 3 -13 -1 -16 -9 -3 -9 -13 -16 -21 -16 -10
0 -13 6 -9 16 5 13 4 14 -7 6 -7 -6 -24 -8 -36 -5 -17 4 -22 2 -19 -7 2 -7 13
-15 24 -18 53 -11 84 -13 84 -5 0 5 6 10 14 10 8 0 12 -6 9 -14 -3 -7 -11 -13
-19 -13 -8 0 -23 -9 -34 -20 -11 -11 -26 -20 -33 -20 -7 0 -18 -5 -24 -11 -13
-13 -13 7 0 28 6 9 3 11 -7 7 -8 -3 -18 -14 -21 -25 -4 -10 -10 -19 -15 -19
-4 0 -10 -6 -13 -14 -5 -12 9 -14 86 -10 l92 4 -25 -21 c-21 -18 -34 -21 -82
-16 -32 3 -58 1 -58 -3 0 -16 72 -32 115 -27 l42 6 -44 -85 c-49 -93 -81 -123
-190 -175 -72 -34 -215 -68 -288 -69 -57 0 -190 17 -253 32 -30 8 -62 29 -111
74 -75 69 -114 127 -136 202 -19 61 -19 65 4 57 11 -3 34 3 55 16 36 21 45 46
26 65 -7 7 2 16 29 29 23 10 48 28 56 41 15 23 20 24 83 18 52 -5 80 -2 123
13 53 18 57 18 95 1 28 -13 33 -18 17 -18 -28 0 -118 -72 -138 -110 -21 -41
-19 -77 5 -83 11 -3 24 -16 29 -29 6 -12 10 -20 10 -15 1 4 20 -2 44 -15 51
-26 124 -29 160 -5 15 9 33 17 42 17 12 0 15 14 15 75 0 83 -14 121 -56 154
l-26 20 34 14 c42 19 94 74 102 110 5 22 11 27 24 22 9 -4 40 -10 68 -12 70
-7 132 21 159 71 l20 37 70 -6 c39 -3 102 -13 140 -21z m-949 -149 c38 -30 52
-35 77 -29 20 4 27 3 23 -5 -10 -16 -90 -13 -136 5 -51 20 -71 51 -37 57 12 2
23 5 24 6 2 0 24 -15 49 -34z m281 -31 c-3 -3 -12 -4 -19 -1 -8 3 -5 6 6 6 11
1 17 -2 13 -5z m-13 -137 c0 -55 -15 -77 -39 -57 -30 25 -10 114 25 107 11 -2
15 -15 14 -50z m1202 -87 c25 -12 48 -28 51 -36 3 -9 -8 -32 -26 -54 -17 -21
-31 -43 -31 -49 0 -6 -11 -18 -25 -27 -25 -16 -34 -44 -14 -44 11 0 43 32 101
103 105 127 250 112 352 -35 36 -53 39 -61 40 -135 l1 -78 -32 -3 c-22 -2 -33
-9 -33 -19 0 -12 7 -14 29 -10 87 18 191 -71 191 -161 0 -34 -51 -116 -85
-138 -14 -9 -40 -20 -57 -23 -26 -5 -34 -13 -41 -41 -12 -47 -31 -66 -83 -84
-39 -13 -50 -13 -93 0 -61 18 -76 35 -77 93 -1 26 -13 70 -28 103 -14 31 -26
60 -26 65 0 4 11 29 24 56 17 33 20 47 11 47 -7 0 -15 9 -18 21 -4 15 -2 19 9
15 8 -3 14 -1 14 5 0 6 19 9 47 8 29 -2 48 1 51 9 2 6 19 14 38 18 25 5 34 11
31 23 -2 9 -10 14 -18 12 -31 -7 -104 -8 -128 0 -14 4 -21 8 -15 8 5 1 25 12
43 25 l33 25 -31 -1 c-17 -1 -36 -7 -42 -15 -6 -7 -23 -13 -38 -13 -14 0 -32
-4 -40 -9 -9 -6 -25 -1 -48 15 -34 23 -121 46 -158 43 -43 -4 -64 2 -86 26
-26 27 -72 32 -144 15 -47 -11 -50 -9 -34 21 6 12 12 49 13 80 1 49 5 62 30
88 33 34 86 55 119 48 12 -3 38 1 57 8 52 20 115 18 166 -5z m-871 -490 c3 -5
1 -10 -4 -10 -6 0 -11 5 -11 10 0 6 2 10 4 10 3 0 8 -4 11 -10z m72 -52 c13
-12 23 -17 23 -11 0 6 9 9 21 6 11 -3 18 -11 15 -18 -3 -8 1 -16 9 -19 9 -3
12 0 8 10 -4 10 3 14 26 14 17 0 31 -4 31 -10 0 -5 -8 -7 -17 -3 -16 6 -16 4
1 -15 11 -12 24 -22 30 -21 6 0 6 3 -2 6 -6 2 -10 9 -6 14 8 13 24 1 24 -17 0
-9 -7 -14 -17 -12 -10 1 -23 -1 -30 -5 -6 -4 -15 -2 -19 4 -5 8 -3 9 7 4 11
-6 12 -5 2 5 -10 11 -15 11 -27 0 -9 -7 -13 -16 -10 -21 3 -5 0 -9 -5 -9 -6 0
-11 7 -11 15 0 8 6 15 12 15 16 0 -20 25 -49 34 -17 6 -23 3 -23 -8 0 -9 6
-16 13 -16 8 0 7 -3 -3 -10 -16 -10 -33 7 -22 25 3 5 -2 4 -11 -4 -16 -13 -16
-14 0 -26 18 -13 50 -4 64 18 4 5 9 5 13 -2 4 -6 3 -11 -2 -11 -6 0 -8 -9 -5
-20 5 -20 -12 -29 -19 -9 -2 5 -11 7 -21 4 -9 -4 -14 -12 -10 -18 3 -6 1 -7
-5 -3 -7 4 -12 3 -12 -1 0 -5 -9 -9 -20 -9 -11 0 -20 6 -20 13 0 6 9 10 20 8
21 -4 27 9 10 20 -5 3 -10 0 -10 -7 0 -10 -2 -10 -8 0 -6 8 -13 1 -25 -23 -10
-21 -24 -35 -34 -34 -11 0 -13 3 -5 6 6 2 12 9 12 14 0 5 -9 4 -19 -3 -11 -7
-18 -15 -15 -19 2 -4 -6 -9 -18 -11 -18 -2 -22 -9 -20 -27 2 -25 -15 -54 -28
-46 -5 3 -11 1 -14 -4 -8 -13 45 -24 57 -12 6 6 19 6 32 1 25 -9 52 9 37 25
-4 4 3 4 16 0 13 -4 29 -2 37 5 10 8 19 8 34 0 17 -8 21 -8 21 4 0 15 50 25
142 29 26 1 44 4 40 7 -7 5 -14 30 -9 30 2 0 14 -9 27 -20 13 -12 18 -20 10
-20 -7 0 -11 -2 -8 -5 3 -3 13 -2 23 1 17 7 17 8 -1 21 -17 12 -17 13 0 13 9
0 14 4 11 10 -3 6 1 7 9 4 9 -3 16 -10 16 -16 0 -5 -5 -6 -12 -2 -7 4 -8 3 -4
-4 4 -7 18 -12 31 -12 23 0 23 -1 9 -27 -7 -16 -14 -36 -14 -47 0 -15 3 -16
15 -6 8 7 15 18 15 25 0 15 67 85 83 86 28 3 33 5 59 22 40 27 58 19 97 -48
36 -59 36 -61 36 -170 -1 -122 -6 -175 -17 -168 -16 9 -48 12 -43 3 7 -11 -51
-26 -134 -35 -35 -3 -69 -7 -75 -8 -6 -1 -10 6 -10 15 1 10 -2 15 -7 12 -14
-8 -39 60 -39 104 0 22 5 53 11 71 6 18 8 35 5 38 -13 13 -29 -17 -40 -74
l-12 -58 -54 -12 c-70 -14 -120 -16 -121 -3 -1 6 -3 15 -4 20 -1 6 -3 31 -4
56 -2 70 -21 43 -21 -30 0 -35 -3 -97 -6 -138 l-7 -76 -38 -11 c-22 -7 -39
-16 -39 -21 0 -11 -107 -33 -126 -26 -8 3 -14 18 -14 33 0 15 -12 73 -25 128
-27 110 -34 240 -12 248 10 3 10 9 0 26 -7 11 -13 30 -13 42 0 32 -25 7 -28
-28 -1 -15 -7 -29 -12 -31 -6 -2 -10 -8 -10 -13 0 -6 4 -8 9 -5 8 5 21 -93 21
-161 0 -27 -3 -31 -17 -26 -10 3 -26 13 -35 21 -10 8 -18 11 -18 6 0 -16 -58
112 -64 144 -4 17 -14 33 -23 36 -13 5 -15 0 -9 -35 4 -22 16 -59 27 -81 23
-45 108 -133 137 -143 16 -4 21 -19 27 -71 4 -36 4 -68 1 -71 -10 -11 -151
-20 -157 -11 -19 28 -89 302 -89 347 0 12 6 21 15 21 8 0 15 5 15 10 0 6 -7
10 -15 10 -10 0 -15 10 -15 29 0 27 4 30 68 47 37 10 81 25 97 34 63 34 105
62 105 70 0 10 71 7 88 -4 6 -4 12 -2 12 3 0 6 -8 11 -17 11 -16 1 -16 2 1 15
11 8 22 12 25 7 3 -4 12 -8 20 -10 12 -3 12 -1 1 15 -8 10 -11 15 -6 11 4 -4
13 -2 20 3 6 5 26 20 44 33 l33 24 -28 -3 c-15 -1 -35 -5 -43 -8 -26 -10 -94
-27 -97 -23 -2 2 18 11 44 20 27 10 57 21 68 26 30 13 37 12 62 -12z m233 -38
c20 0 1 -16 -30 -25 -19 -5 -21 -4 -10 4 13 9 13 11 -2 11 -10 0 -18 5 -18 11
0 7 9 9 23 5 12 -3 29 -6 37 -6z m96 -92 c-10 -6 -20 -7 -24 -3 -9 8 20 25 31
18 5 -3 2 -10 -7 -15z m-446 -88 c0 -5 -5 -10 -11 -10 -5 0 -7 5 -4 10 3 6 8
10 11 10 2 0 4 -4 4 -10z m1475 -310 c-10 -11 -20 -18 -23 -15 -3 3 3 14 13
25 10 11 20 18 23 15 3 -3 -3 -14 -13 -25z m-754 -74 c1 -6 1 -15 0 -19 -1 -5
3 -6 8 -3 5 3 14 -1 21 -9 10 -12 7 -14 -16 -12 -17 1 -29 -3 -30 -10 -1 -7
-2 -16 -3 -19 0 -4 -9 0 -18 7 -15 12 -16 12 -10 -4 6 -15 3 -17 -13 -12 -10
3 -29 1 -41 -5 -15 -8 -19 -9 -15 -1 4 6 2 11 -3 11 -6 0 -11 -5 -11 -11 0 -5
-4 -7 -10 -4 -6 4 -5 13 2 25 9 14 16 16 25 8 10 -8 13 -5 13 11 0 18 -3 20
-19 11 -11 -5 -21 -15 -24 -22 -3 -10 -9 -10 -23 -2 -25 14 -32 39 -9 30 10
-3 24 -1 31 5 8 6 23 9 34 6 11 -3 27 1 34 9 8 8 21 14 28 14 10 0 10 -2 -1
-9 -7 -5 -10 -14 -7 -20 11 -17 46 -13 46 5 0 8 -4 12 -10 9 -5 -3 -10 0 -10
8 0 16 29 19 31 3z m896 -1149 c4 -5 9 -211 11 -458 l3 -449 -3181 0 -3180 0
0 460 0 460 3169 -2 c1743 -2 3173 -7 3178 -11z m13 -1382 l0 -465 -3180 0
-3180 0 0 465 0 465 3180 0 3180 0 0 -465z m0 -940 l0 -465 -3180 0 -3180 0 0
465 0 465 3180 0 3180 0 0 -465z"/>
<path d="M17639 5679 c16 -6 28 -6 35 1 7 7 -1 10 -24 9 -33 0 -34 -1 -11 -10z"/>
<path d="M8610 5290 c0 -183 1 -190 20 -190 11 0 20 7 20 15 0 14 3 14 30 0
79 -41 150 15 150 120 0 105 -71 161 -150 120 l-30 -16 0 71 c0 63 -2 70 -20
70 -19 0 -20 -7 -20 -190z m146 32 c20 -13 34 -50 34 -87 0 -37 -14 -74 -34
-87 -20 -13 -69 -8 -88 9 -24 22 -26 128 -1 155 16 18 68 24 89 10z"/>
<path d="M9170 5290 c0 -183 1 -190 20 -190 19 0 20 7 20 190 0 183 -1 190
-20 190 -19 0 -20 -7 -20 -190z"/>
<path d="M9290 5290 c0 -183 1 -190 20 -190 11 0 20 7 20 15 0 14 3 14 30 0
58 -30 110 -10 136 51 38 90 -9 204 -84 204 -13 0 -36 -7 -52 -15 l-30 -16 0
71 c0 63 -2 70 -20 70 -19 0 -20 -7 -20 -190z m156 19 c14 -15 19 -36 19 -74
0 -64 -23 -95 -68 -95 -50 0 -67 24 -67 93 0 42 5 66 17 79 22 25 75 23 99 -3z"/>
<path d="M12247 5473 c-4 -3 3 -17 15 -30 l21 -23 -21 -23 c-29 -31 -16 -44
15 -15 l23 21 25 -23 c28 -27 36 -8 8 22 -15 17 -15 19 0 36 28 30 20 49 -8
22 l-25 -23 -23 21 c-13 12 -27 19 -30 15z"/>
<path d="M9630 5363 c-24 -9 -60 -45 -60 -60 0 -18 37 -16 44 2 8 23 47 34 78
23 16 -6 28 -13 28 -16 0 -4 3 -17 6 -29 6 -21 3 -23 -35 -23 -86 0 -142 -46
-127 -104 12 -46 92 -72 132 -41 25 19 34 19 34 0 0 -9 9 -15 23 -15 22 0 22
1 17 110 -4 94 -8 113 -26 131 -21 21 -86 34 -114 22z m98 -160 c7 -49 -76
-84 -112 -47 -21 20 -20 30 5 55 29 29 103 24 107 -8z"/>
<path d="M9885 5358 c-77 -42 -53 -114 46 -138 53 -13 73 -35 58 -63 -14 -25
-84 -23 -106 3 -18 21 -53 27 -53 10 0 -18 47 -59 74 -66 58 -14 136 26 136
71 0 29 -43 64 -96 80 -30 9 -57 22 -61 31 -15 41 75 63 99 24 13 -20 48 -28
48 -11 0 54 -89 90 -145 59z"/>
<path d="M10160 5363 c-24 -9 -60 -45 -60 -60 0 -18 37 -16 44 2 8 23 47 34
78 23 16 -6 28 -13 28 -16 0 -4 3 -17 6 -29 6 -21 3 -23 -35 -23 -86 0 -142
-46 -127 -104 12 -46 92 -72 132 -41 25 19 34 19 34 0 0 -9 9 -15 23 -15 22 0
22 1 17 110 -4 94 -8 113 -26 131 -21 21 -86 34 -114 22z m98 -160 c7 -49 -76
-84 -112 -47 -21 20 -20 30 5 55 29 29 103 24 107 -8z"/>
<path d="M10712 5354 c-12 -8 -22 -10 -22 -5 0 6 -9 11 -20 11 -19 0 -20 -7
-20 -130 0 -123 1 -130 20 -130 19 0 20 7 20 99 0 92 2 101 22 115 12 9 30 16
40 16 11 0 18 8 18 20 0 24 -26 26 -58 4z"/>
<path d="M8890 5263 c0 -58 5 -108 13 -123 17 -34 68 -47 115 -30 26 9 37 10
40 1 2 -6 10 -11 18 -11 11 0 14 25 14 130 0 123 -1 130 -20 130 -19 0 -20 -7
-20 -100 0 -110 -6 -120 -69 -120 -42 0 -51 22 -51 129 0 84 -1 91 -20 91 -19
0 -20 -7 -20 -97z"/>
<path d="M10370 5255 c0 -99 2 -107 25 -130 27 -28 66 -32 108 -11 23 13 27
13 27 0 0 -8 9 -14 20 -14 19 0 20 7 20 130 0 123 -1 130 -20 130 -19 0 -20
-7 -20 -100 0 -109 -6 -120 -67 -120 -47 0 -53 15 -53 122 0 91 -1 98 -20 98
-19 0 -20 -7 -20 -105z"/>
<path d="M8807 4829 c-15 -11 -36 -46 -47 -78 -17 -47 -26 -57 -43 -57 -18 1
-22 -5 -22 -26 1 -33 3 -33 -63 -8 -55 21 -166 28 -177 10 -3 -5 6 -27 20 -49
30 -48 32 -71 6 -71 -16 0 -18 -8 -18 -77 0 -109 -35 -207 -144 -400 -125
-222 -177 -369 -179 -504 0 -59 38 -190 73 -248 39 -65 141 -153 200 -171 23
-8 45 -15 50 -17 4 -2 -9 -25 -28 -51 -46 -60 -89 -150 -110 -232 -33 -126 -8
-348 54 -471 28 -57 90 -109 180 -151 41 -19 45 -19 56 -4 15 20 42 20 75 1
38 -22 70 -19 70 6 0 18 4 20 28 15 15 -4 47 -9 70 -13 l44 -6 -4 38 c-4 49
11 53 39 10 13 -19 37 -42 55 -51 18 -9 39 -25 46 -35 38 -55 66 -63 84 -24
14 31 21 31 52 0 14 -14 36 -25 50 -25 21 0 26 6 32 35 6 34 6 34 35 20 15 -8
42 -15 60 -15 31 0 32 0 26 41 -4 33 0 50 18 80 l24 37 33 -17 c18 -9 49 -27
68 -39 44 -27 70 -28 77 -2 6 24 3 23 39 6 16 -8 41 -18 57 -21 24 -7 27 -5
27 20 0 25 3 27 28 21 15 -3 42 -9 61 -13 l34 -6 -5 39 c-4 37 -1 44 61 111
36 40 71 73 76 73 6 0 38 13 72 29 l62 30 16 -47 c24 -74 93 -191 139 -237 48
-48 85 -60 219 -70 85 -7 87 -7 87 14 0 21 3 22 62 15 l61 -7 -6 38 c-6 37 -6
37 22 32 37 -8 71 2 71 20 0 7 -9 31 -20 53 -15 30 -20 59 -20 123 0 158 -45
344 -115 473 l-33 62 77 50 c107 69 175 146 191 213 34 139 -35 441 -148 653
-18 32 -32 72 -32 88 0 83 -58 256 -99 297 -40 40 -167 23 -292 -39 -53 -26
-59 -27 -182 -22 l-127 5 0 31 c0 17 -9 49 -21 71 -58 110 -193 192 -346 210
-32 4 -91 15 -131 26 -40 10 -141 23 -225 29 -217 15 -288 32 -333 78 -20 20
-45 54 -55 74 -25 48 -32 52 -62 27z m74 -102 c11 -15 43 -39 69 -52 54 -27
201 -55 295 -55 211 -1 391 -72 486 -192 34 -43 76 -144 65 -155 -2 -3 -44
-14 -93 -27 l-88 -22 -81 43 c-167 89 -216 68 -280 -120 -13 -38 -35 -126 -49
-195 -15 -70 -29 -129 -31 -131 -2 -3 -23 13 -45 35 -56 54 -111 174 -153 329
-55 207 -74 248 -182 395 -22 30 -25 43 -22 92 3 38 12 68 29 92 l24 36 17
-22 c9 -13 27 -36 39 -51z m-143 -93 c2 -16 -1 -23 -8 -19 -5 3 -10 18 -10 32
0 32 13 22 18 -13z m-70 -19 c74 -33 139 -100 183 -187 16 -32 52 -143 80
-246 59 -217 89 -280 170 -357 l59 -57 -19 -26 c-34 -47 -141 -147 -271 -252
l-125 -101 -68 6 c-85 8 -167 29 -226 58 -66 33 -93 101 -99 252 -5 135 8 196
82 384 84 213 109 303 108 393 -1 56 -7 89 -21 119 -12 24 -21 45 -21 47 0 14
114 -9 168 -33z m1077 -86 c98 -36 194 -146 195 -221 0 -25 -4 -28 -34 -28
-19 0 -41 -3 -50 -6 -11 -4 -16 4 -22 33 -11 62 -54 130 -123 195 -67 63 -66
64 34 27z m-1238 -79 c-6 -75 -42 -186 -124 -385 -28 -66 -56 -149 -64 -185
-15 -75 -16 -225 -1 -288 14 -57 -5 -42 -43 35 -34 69 -45 178 -25 239 7 22
43 93 80 159 116 207 161 326 164 427 0 38 5 68 10 68 5 0 6 -31 3 -70z m2049
-137 c25 -26 61 -109 78 -182 l15 -63 -25 23 c-44 41 -37 11 20 -86 88 -151
147 -308 176 -469 13 -79 13 -195 -2 -237 -27 -80 -115 -157 -273 -240 -203
-107 -317 -134 -550 -133 -288 1 -481 50 -606 155 -26 22 -50 39 -53 39 -16 0
-2 -25 40 -70 58 -63 146 -100 320 -136 110 -23 154 -27 299 -28 220 0 289 15
527 118 l38 16 36 -72 c73 -145 114 -307 114 -450 0 -65 -4 -85 -20 -105 -11
-14 -20 -35 -20 -45 0 -19 -1 -19 -18 3 -25 29 -47 20 -69 -28 -10 -21 -19
-40 -20 -42 -2 -3 -16 8 -31 22 -36 35 -46 34 -78 -8 -29 -39 -54 -44 -107
-21 -61 25 -155 163 -188 274 -12 41 -11 44 12 59 46 33 84 71 77 78 -4 4 -40
-13 -80 -38 -122 -75 -207 -110 -343 -143 -73 -17 -254 -23 -312 -10 -30 7
-32 9 -25 39 12 53 8 299 -6 342 -29 96 -49 85 -32 -17 29 -165 5 -358 -61
-492 -28 -57 -35 -65 -55 -60 -25 7 -64 -25 -64 -53 0 -13 -6 -11 -29 11 -24
23 -32 26 -49 17 -12 -6 -27 -20 -35 -31 -14 -20 -14 -19 -25 5 -17 36 -57 43
-87 15 l-25 -23 -40 41 c-60 64 -81 142 -87 328 -6 177 8 265 64 383 19 40 31
76 28 80 -10 9 -49 -43 -75 -99 l-23 -48 -48 51 c-60 64 -65 42 -8 -34 35 -46
40 -59 34 -89 -30 -180 -27 -327 11 -459 8 -29 12 -56 8 -60 -4 -3 -9 0 -11 7
-5 13 -41 16 -59 4 -6 -4 -21 -22 -32 -41 l-20 -33 -16 30 c-26 51 -67 50
-103 -4 l-17 -26 -18 36 c-21 41 -43 46 -81 16 -33 -26 -38 -25 -69 7 -51 53
-94 190 -105 331 -17 228 89 423 350 641 17 14 18 14 12 -11 -8 -31 18 -52
112 -92 91 -38 124 -35 166 15 46 53 127 212 127 249 0 35 -9 41 -77 55 l-52
10 87 81 88 81 -1 -76 c0 -98 17 -108 28 -16 19 170 51 344 83 455 44 157 76
220 111 220 28 0 163 -60 215 -95 60 -40 93 -48 63 -15 -10 11 -16 22 -14 24
10 9 165 37 259 47 105 11 180 8 340 -12 47 -6 99 -9 115 -7 27 3 24 6 -29 22
-69 21 -67 24 55 60 100 30 142 32 165 9z m-705 -1877 c-23 -23 -39 -32 -55
-29 -16 3 -31 -5 -53 -30 -28 -32 -31 -33 -42 -16 -17 28 -46 23 -75 -12 l-26
-31 -11 31 c-13 37 -43 41 -82 11 -24 -19 -26 -19 -46 -2 -21 17 -21 18 -5 60
15 36 20 41 38 36 35 -12 257 -6 321 9 33 7 62 12 64 10 3 -2 -10 -18 -28 -37z
m-31 -107 c0 -22 -9 -23 -45 -7 -29 13 -31 24 -8 51 17 18 18 18 35 -3 10 -12
18 -31 18 -41z m924 36 c22 -34 20 -45 -8 -45 -33 0 -50 23 -36 49 14 27 24
26 44 -4z m-1170 -43 c11 -40 6 -46 -27 -31 -33 15 -40 34 -20 54 21 22 36 14
47 -23z m116 19 c5 -11 10 -29 10 -40 0 -18 -3 -19 -30 -10 -31 11 -39 36 -18
57 17 17 26 15 38 -7z m966 -43 c19 -37 15 -42 -31 -34 -31 6 -35 10 -29 29 9
30 24 48 35 41 5 -3 16 -19 25 -36z m-1801 22 c4 -6 10 -24 15 -40 8 -27 6
-30 -14 -30 -12 0 -31 6 -41 14 -17 12 -18 18 -7 40 12 26 36 34 47 16z m-267
-32 c15 -53 1 -61 -42 -27 -26 20 -26 22 -10 40 25 28 42 23 52 -13z m147 -19
c9 -40 3 -44 -33 -25 -42 22 -46 32 -22 56 26 26 45 14 55 -31z m1789 6 c23
-34 20 -45 -11 -45 -45 0 -59 14 -45 44 15 33 35 33 56 1z m-1178 -12 c7 -10
14 -30 14 -45 0 -26 -1 -26 -31 -16 -36 12 -45 29 -29 57 13 26 28 27 46 4z
m-236 -22 c12 -24 -4 -75 -23 -69 -6 3 -19 16 -27 30 -12 22 -12 29 -1 42 18
22 38 20 51 -3z m118 7 c14 -14 16 -57 2 -78 -7 -12 -13 -11 -34 10 -30 28
-32 37 -9 62 19 21 25 22 41 6z"/>
<path d="M10260 4136 c-72 -30 -188 -103 -201 -127 -6 -13 -6 -25 0 -37 24
-46 155 -118 191 -107 48 15 126 156 137 246 l6 49 -39 0 c-21 -1 -64 -11 -94
-24z"/>
<path d="M9992 3875 c-51 -36 -47 -79 12 -135 21 -19 30 -22 44 -14 33 21 37
58 11 110 -28 55 -36 60 -67 39z"/>
<path d="M10534 3855 c-20 -31 -32 -125 -15 -125 6 0 13 12 16 28 4 15 11 46
17 70 13 52 6 63 -18 27z"/>
<path d="M9804 3848 c9 -13 35 -51 58 -85 61 -91 93 -79 36 14 -21 35 -83 93
-100 93 -6 0 -4 -10 6 -22z"/>
<path d="M10614 3832 c-6 -4 -20 -23 -30 -42 -15 -28 -19 -63 -22 -185 -5
-187 6 -228 57 -233 39 -4 107 19 145 49 101 79 -45 481 -150 411z m64 -45
c29 -31 70 -124 83 -190 15 -74 2 -144 -30 -165 l-23 -16 7 34 c23 104 -9 277
-61 333 -16 18 -20 27 -11 27 7 0 23 -10 35 -23z m-50 -54 c26 -68 22 -167 -7
-196 -30 -30 -42 59 -25 181 7 49 17 53 32 15z"/>
<path d="M10372 3804 c-29 -20 -92 -127 -99 -168 -4 -28 -1 -37 18 -49 33 -22
144 -51 163 -44 27 11 18 146 -16 230 -15 38 -40 50 -66 31z"/>
<path d="M9610 3773 c-39 -27 -57 -52 -95 -129 -40 -81 -61 -196 -48 -259 16
-73 114 -110 293 -110 116 0 143 7 158 40 35 77 -18 278 -104 390 -56 74 -151
105 -204 68z m46 -46 c-59 -77 -73 -268 -28 -370 l21 -47 -27 6 c-50 11 -97
27 -109 37 -8 5 -13 32 -13 66 1 152 90 341 162 341 18 0 17 -3 -6 -33z m99
-37 c26 -29 33 -161 12 -213 -28 -65 -60 -45 -79 47 -15 77 9 186 42 186 4 0
15 -9 25 -20z"/>
<path d="M10770 3330 c-13 -47 -48 -77 -146 -121 -158 -72 -196 -81 -375 -86
-238 -8 -543 22 -671 64 -45 15 -57 25 -77 61 -15 28 -27 40 -33 34 -16 -16
26 -98 59 -115 90 -46 352 -79 638 -81 245 -1 299 10 470 94 130 63 155 87
155 145 0 25 -2 45 -5 45 -2 0 -9 -18 -15 -40z"/>
<path d="M10478 3239 c-18 -10 -25 -39 -9 -39 12 0 33 28 29 39 -2 6 -9 6 -20
0z"/>
<path d="M10250 3201 c0 -11 39 -25 47 -18 3 3 2 10 -2 16 -8 13 -45 15 -45 2z"/>
<path d="M8465 2938 c-27 -32 -55 -87 -55 -107 0 -18 51 -70 105 -106 84 -55
100 -49 153 55 23 46 42 99 42 116 0 29 -5 34 -42 47 -24 9 -73 18 -109 21
-66 6 -67 6 -94 -26z"/>
<path d="M9135 2869 c-94 -49 -155 -110 -155 -153 0 -39 58 -139 121 -209 40
-44 50 -50 66 -41 26 16 41 68 53 191 15 147 2 233 -34 233 -6 0 -29 -9 -51
-21z"/>
<path d="M10562 2765 c-32 -27 -92 -135 -92 -166 0 -55 64 -109 130 -109 24 0
33 6 40 26 23 58 4 225 -29 257 -17 18 -19 17 -49 -8z"/>
<path d="M8980 1935 c0 -63 4 -105 10 -105 6 0 10 27 10 60 0 47 4 62 16 67
32 12 49 -11 52 -71 4 -75 22 -72 22 3 0 41 -5 65 -16 75 -18 19 -45 21 -62 4
-9 -9 -12 -3 -12 30 0 23 -4 42 -10 42 -6 0 -10 -42 -10 -105z"/>
<path d="M9490 1935 c0 -110 17 -147 22 -49 3 60 20 83 52 71 12 -5 16 -20 16
-67 0 -33 4 -60 10 -60 6 0 10 28 10 64 0 77 -15 96 -61 79 -29 -11 -29 -11
-29 28 0 21 -4 39 -10 39 -6 0 -10 -42 -10 -105z"/>
<path d="M9276 2021 c-4 -5 -2 -12 3 -15 5 -4 12 -2 15 3 4 5 2 12 -3 15 -5 4
-12 2 -15 -3z"/>
<path d="M9860 2020 c0 -5 23 -10 51 -10 58 0 58 -1 8 -102 -30 -60 -35 -78
-21 -78 7 0 61 114 89 186 4 11 -9 14 -61 14 -37 0 -66 -4 -66 -10z"/>
<path d="M9650 2001 c0 -11 -6 -22 -12 -24 -10 -4 -10 -7 -1 -14 6 -5 13 -33
15 -62 3 -53 26 -87 45 -67 4 4 0 12 -10 17 -23 13 -25 109 -2 109 8 0 15 5
15 10 0 6 -7 10 -15 10 -8 0 -15 9 -15 20 0 11 -4 20 -10 20 -5 0 -10 -9 -10
-19z"/>
<path d="M9140 1960 c-42 -42 -13 -130 43 -130 29 0 64 24 49 34 -6 3 -13 2
-17 -4 -9 -14 -48 -13 -63 2 -26 26 -13 38 38 38 43 0 50 3 50 20 0 26 -34 60
-60 60 -11 0 -29 -9 -40 -20z m68 -12 c21 -21 13 -28 -28 -28 -22 0 -40 4 -40
8 0 14 23 32 40 32 9 0 21 -5 28 -12z"/>
<path d="M9270 1905 c0 -43 4 -75 10 -75 6 0 10 32 10 75 0 43 -4 75 -10 75
-6 0 -10 -32 -10 -75z"/>
<path d="M9349 1959 c-46 -46 -8 -137 52 -125 33 6 40 -12 13 -35 -12 -10 -22
-10 -45 -2 -23 9 -29 9 -26 0 8 -24 54 -31 81 -13 25 16 26 21 26 104 l0 88
-41 1 c-28 1 -46 -4 -60 -18z m65 -5 c21 -8 22 -77 1 -94 -37 -31 -80 24 -57
75 12 25 27 30 56 19z"/>
<path d="M9737 1974 c-8 -8 1 -24 14 -24 5 0 9 7 9 15 0 15 -12 20 -23 9z"/>
<path d="M9737 1854 c-8 -8 1 -24 14 -24 5 0 9 7 9 15 0 15 -12 20 -23 9z"/>
<path d="M9440 1325 c0 -110 17 -147 22 -49 3 60 20 83 52 71 12 -5 16 -20 16
-67 0 -33 4 -60 10 -60 6 0 10 28 10 64 0 77 -15 96 -61 79 -29 -11 -29 -11
-29 28 0 21 -4 39 -10 39 -6 0 -10 -42 -10 -105z"/>
<path d="M9226 1411 c-4 -5 -2 -12 3 -15 5 -4 12 -2 15 3 4 5 2 12 -3 15 -5 4
-12 2 -15 -3z"/>
<path d="M9849 1391 c-54 -54 -33 -171 31 -171 27 0 60 35 60 63 0 12 -7 33
-16 46 -14 19 -23 22 -50 18 -19 -3 -34 -2 -34 2 0 13 41 51 55 51 8 0 15 5
15 10 0 20 -32 10 -61 -19z m59 -73 c29 -29 3 -84 -35 -76 -25 5 -40 52 -23
72 15 19 41 21 58 4z"/>
<path d="M9987 1402 c-10 -10 -17 -33 -17 -50 0 -41 25 -65 62 -58 19 4 28 1
28 -8 0 -18 -33 -46 -53 -46 -9 0 -17 -4 -17 -10 0 -5 8 -10 18 -10 69 0 107
125 55 182 -21 23 -55 23 -76 0z m68 -26 c27 -41 -3 -78 -49 -60 -19 7 -22 70
-3 77 25 11 37 6 52 -17z"/>
<path d="M9600 1391 c0 -11 -6 -22 -12 -24 -10 -4 -10 -7 -1 -14 6 -5 13 -33
15 -62 3 -53 26 -87 45 -67 4 4 0 12 -10 17 -23 13 -25 109 -2 109 8 0 15 5
15 10 0 6 -7 10 -15 10 -8 0 -15 9 -15 20 0 11 -4 20 -10 20 -5 0 -10 -9 -10
-19z"/>
<path d="M8860 1363 c0 -24 38 -137 47 -140 6 -2 16 18 23 44 7 26 16 51 20
56 3 4 14 -18 24 -48 9 -30 21 -55 25 -55 5 0 16 28 26 62 9 34 19 68 22 75 3
7 0 13 -6 13 -5 0 -15 -19 -21 -42 -19 -74 -22 -76 -39 -19 -9 30 -21 56 -28
58 -6 2 -16 -18 -23 -47 -7 -27 -16 -50 -20 -50 -4 0 -13 23 -20 50 -7 28 -16
50 -21 50 -5 0 -9 -3 -9 -7z"/>
<path d="M9090 1350 c-42 -42 -13 -130 43 -130 29 0 64 24 49 34 -6 3 -13 2
-17 -4 -9 -14 -48 -13 -63 2 -26 26 -13 38 38 38 43 0 50 3 50 20 0 26 -34 60
-60 60 -11 0 -29 -9 -40 -20z m68 -12 c21 -21 13 -28 -28 -28 -22 0 -40 4 -40
8 0 14 23 32 40 32 9 0 21 -5 28 -12z"/>
<path d="M9220 1295 c0 -43 4 -75 10 -75 6 0 10 32 10 75 0 43 -4 75 -10 75
-6 0 -10 -32 -10 -75z"/>
<path d="M9299 1349 c-46 -46 -8 -137 52 -125 33 6 40 -12 13 -35 -12 -10 -22
-10 -45 -2 -23 9 -29 9 -26 0 8 -24 54 -31 81 -13 25 16 26 21 26 104 l0 88
-41 1 c-28 1 -46 -4 -60 -18z m65 -5 c21 -8 22 -77 1 -94 -37 -31 -80 24 -57
75 12 25 27 30 56 19z"/>
<path d="M9687 1364 c-8 -8 1 -24 14 -24 5 0 9 7 9 15 0 15 -12 20 -23 9z"/>
<path d="M9687 1244 c-8 -8 1 -24 14 -24 5 0 9 7 9 15 0 15 -12 20 -23 9z"/>
<path d="M10230 785 c0 -8 5 -15 10 -15 6 0 10 7 10 15 0 8 -4 15 -10 15 -5 0
-10 -7 -10 -15z"/>
<path d="M8260 771 c0 -11 -6 -22 -12 -24 -10 -4 -10 -7 -1 -14 6 -5 13 -33
15 -62 3 -53 26 -87 45 -67 4 4 0 12 -10 17 -23 13 -25 109 -2 109 8 0 15 5
15 10 0 6 -7 10 -15 10 -8 0 -15 9 -15 20 0 11 -4 20 -10 20 -5 0 -10 -9 -10
-19z"/>
<path d="M8330 741 c0 -5 11 -39 25 -75 26 -70 23 -106 -10 -106 -8 0 -15 -4
-15 -10 0 -16 26 -12 41 6 22 27 78 194 64 194 -6 0 -20 -26 -30 -57 l-18 -58
-19 58 c-11 31 -24 57 -29 57 -5 0 -9 -4 -9 -9z"/>
<path d="M8470 645 c0 -63 4 -105 10 -105 6 0 10 16 10 35 0 35 1 36 34 30 28
-6 36 -3 50 16 22 31 20 82 -3 110 -17 22 -22 23 -50 12 -17 -6 -31 -7 -31 -2
0 5 -4 9 -10 9 -6 0 -10 -42 -10 -105z m89 71 c17 -20 10 -77 -11 -90 -26 -16
-52 4 -56 43 -4 36 12 61 38 61 10 0 23 -6 29 -14z"/>
<path d="M8640 728 c-59 -64 18 -165 86 -113 18 14 16 15 -23 9 -35 -5 -43 -3
-52 14 -16 31 -15 32 39 32 43 0 50 3 50 20 0 26 -34 60 -60 60 -10 0 -28 -10
-40 -22z m68 -10 c21 -21 13 -28 -28 -28 -38 0 -40 2 -30 20 12 22 40 26 58 8z"/>
<path d="M8788 739 c-33 -19 -21 -48 28 -69 50 -22 54 -43 11 -48 -18 -2 -29
2 -33 12 -8 20 -24 21 -24 1 0 -21 43 -39 74 -31 28 7 44 42 27 60 -7 6 -26
16 -43 22 -18 6 -34 16 -36 22 -6 18 28 27 49 14 30 -19 44 -14 24 8 -20 22
-50 25 -77 9z"/>
<path d="M8980 735 c0 -9 5 -15 11 -13 6 2 11 8 11 13 0 5 -5 11 -11 13 -6 2
-11 -4 -11 -13z"/>
<path d="M9129 729 c-46 -46 -8 -137 52 -125 33 6 40 -12 13 -35 -12 -10 -22
-10 -45 -2 -23 9 -29 9 -26 0 8 -24 54 -31 81 -13 25 16 26 21 26 104 l0 88
-41 1 c-28 1 -46 -4 -60 -18z m65 -5 c21 -8 22 -77 1 -94 -37 -31 -80 24 -57
75 12 25 27 30 56 19z"/>
<path d="M9270 673 c0 -42 4 -73 10 -73 6 0 10 25 10 55 0 49 3 57 25 67 35
16 31 26 -10 25 l-35 -1 0 -73z"/>
<path d="M9374 736 c-10 -8 -16 -18 -11 -22 4 -4 13 -2 19 4 17 17 55 15 62
-4 9 -23 8 -24 -20 -24 -38 0 -64 -18 -64 -44 0 -33 18 -44 68 -43 l42 2 0 57
c0 62 -16 88 -54 88 -12 0 -31 -6 -42 -14z m76 -79 c0 -18 -21 -37 -41 -37
-22 0 -33 16 -25 35 7 19 66 20 66 2z"/>
<path d="M9526 737 c-10 -7 -17 -22 -15 -32 4 -18 13 -25 61 -44 19 -7 26 -15
22 -26 -8 -20 -43 -19 -66 2 -16 15 -18 15 -18 0 0 -36 66 -49 94 -18 23 26 9
51 -35 66 -18 6 -35 17 -37 23 -6 18 28 27 50 13 27 -16 38 -3 14 15 -25 18
-47 18 -70 1z"/>
<path d="M9668 739 c-33 -19 -21 -48 28 -69 50 -22 54 -43 11 -48 -18 -2 -29
2 -33 12 -8 20 -24 21 -24 1 0 -21 43 -39 74 -31 28 7 44 42 27 60 -7 6 -26
16 -43 22 -18 6 -34 16 -36 22 -6 18 28 27 49 14 30 -19 44 -14 24 8 -20 22
-50 25 -77 9z"/>
<path d="M9910 643 c0 -85 3 -103 15 -103 10 0 15 11 15 35 0 33 2 35 25 29
38 -10 65 19 65 70 0 60 -11 71 -70 72 l-50 1 0 -104z m89 73 c17 -20 10 -77
-10 -89 -30 -19 -49 -1 -49 46 0 24 3 47 7 50 11 12 40 8 52 -7z"/>
<path d="M10085 725 c-14 -13 -25 -36 -25 -50 0 -31 41 -75 70 -75 32 0 60 35
60 75 0 40 -28 75 -60 75 -12 0 -32 -11 -45 -25z m73 -7 c7 -7 12 -26 12 -44
0 -58 -51 -73 -79 -23 -13 24 -13 29 2 53 19 28 45 34 65 14z"/>
<path d="M10230 675 c0 -43 4 -75 10 -75 6 0 10 32 10 75 0 43 -4 75 -10 75
-6 0 -10 -32 -10 -75z"/>
<path d="M10308 739 c-33 -19 -21 -48 28 -69 50 -22 54 -43 11 -48 -18 -2 -29
2 -33 12 -8 20 -24 21 -24 1 0 -21 43 -39 74 -31 28 7 44 42 27 60 -7 6 -26
16 -43 22 -18 6 -34 16 -36 22 -6 18 28 27 49 14 30 -19 44 -14 24 8 -20 22
-50 25 -77 9z"/>
<path d="M10450 730 c-43 -43 -13 -130 44 -130 29 0 66 42 66 75 0 33 -37 75
-66 75 -13 0 -33 -9 -44 -20z m74 -16 c32 -31 10 -94 -33 -94 -26 0 -41 20
-41 55 0 51 41 73 74 39z"/>
<path d="M10590 675 c0 -87 18 -102 22 -19 3 60 20 83 52 71 12 -5 16 -20 16
-67 0 -33 4 -60 10 -60 6 0 10 28 10 64 0 77 -15 96 -61 79 -16 -6 -29 -7 -29
-2 0 5 -4 9 -10 9 -6 0 -10 -32 -10 -75z"/>
<path d="M8980 615 c0 -9 5 -15 11 -13 6 2 11 8 11 13 0 5 -5 11 -11 13 -6 2
-11 -4 -11 -13z"/>
<path d="M9790 618 c0 -7 -3 -24 -6 -38 -5 -24 -5 -24 10 -6 18 22 21 56 6 56
-5 0 -10 -6 -10 -12z"/>
<path d="M17304 5319 c-3 -6 -2 -15 4 -21 6 -6 11 -2 15 11 5 22 -7 29 -19 10z"/>
<path d="M17265 5260 c-2 -3 7 -6 21 -6 13 0 24 3 24 7 0 9 -40 8 -45 -1z"/>
<path d="M16735 5159 c-4 -6 -4 -13 -1 -16 3 -4 6 -1 6 6 0 7 5 9 10 6 6 -3
10 -1 10 4 0 14 -17 14 -25 0z"/>
<path d="M16725 4979 c-10 -16 15 -68 36 -74 43 -14 51 19 14 59 -26 28 -40
32 -50 15z"/>
<path d="M18678 4594 c-27 -8 -48 -17 -48 -20 0 -10 75 9 90 22 17 17 18 17
-42 -2z"/>
<path d="M17218 4393 c6 -2 18 -2 25 0 6 3 1 5 -13 5 -14 0 -19 -2 -12 -5z"/>
<path d="M17917 4173 c-14 -13 -7 -23 16 -22 17 1 18 2 4 6 -9 2 -15 9 -12 14
7 10 1 12 -8 2z"/>
<path d="M17955 4030 c-3 -5 -1 -10 4 -10 6 0 11 5 11 10 0 6 -2 10 -4 10 -3
0 -8 -4 -11 -10z"/>
</g>
</svg>
